template.ufo
<glyph name="arGaf.fina" format="1">
  <advance width="1413" height="1368"/>
  <unicode hex="FB93"/>
  <outline>
    <contour>
      <point x="522" y="192" type="curve" smooth="yes"/>
      <point x="319" y="192"/>
      <point x="185" y="261"/>
      <point x="185" y="413" type="curve" smooth="yes"/>
      <point x="185" y="448"/>
      <point x="190" y="481"/>
      <point x="195" y="513" type="curve"/>
      <point x="140" y="528" type="line"/>
      <point x="111" y="441"/>
      <point x="100" y="367"/>
      <point x="100" y="304" type="curve" smooth="yes"/>
      <point x="100" y="78"/>
      <point x="252" y="-13"/>
      <point x="500" y="-13" type="curve" smooth="yes"/>
      <point x="689" y="-13"/>
      <point x="892" y="38"/>
      <point x="970" y="105" type="curve"/>
      <point x="1002" y="149"/>
      <point x="1023" y="198"/>
      <point x="1034" y="251" type="curve"/>
      <point x="1040" y="251" type="line"/>
      <point x="1173" y="104"/>
      <point x="1191" y="0"/>
      <point x="1399" y="0" type="curve" smooth="yes"/>
      <point x="1413" y="0" type="line"/>
      <point x="1413" y="200" type="line"/>
      <point x="1399" y="200" type="line" smooth="yes"/>
      <point x="1320" y="200"/>
      <point x="1276" y="225"/>
      <point x="1226" y="273" type="curve" smooth="yes"/>
      <point x="1116" y="377"/>
      <point x="1010" y="472"/>
      <point x="898" y="552" type="curve"/>
      <point x="936" y="629" type="line"/>
      <point x="860" y="645"/>
      <point x="796" y="660"/>
      <point x="742" y="676" type="curve"/>
      <point x="742" y="680" type="line"/>
      <point x="900" y="750"/>
      <point x="1065" y="808"/>
      <point x="1236" y="857" type="curve"/>
      <point x="1265" y="909"/>
      <point x="1293" y="962"/>
      <point x="1319" y="1017" type="curve"/>
      <point x="1313" y="1023" type="line"/>
      <point x="1044" y="943"/>
      <point x="818" y="863"/>
      <point x="690" y="783" type="curve"/>
      <point x="661" y="759"/>
      <point x="642" y="718"/>
      <point x="642" y="668" type="curve" smooth="yes"/>
      <point x="642" y="616"/>
      <point x="648" y="581"/>
      <point x="655" y="548" type="curve"/>
      <point x="817" y="437"/>
      <point x="914" y="330"/>
      <point x="934" y="276" type="curve"/>
      <point x="841" y="221"/>
      <point x="666" y="192"/>
    </contour>
    <contour>
      <point x="1267" y="1147" type="line"/>
      <point x="1262" y="1153" type="line"/>
      <point x="1062" y="1094"/>
      <point x="876" y="1029"/>
      <point x="716" y="954" type="curve"/>
      <point x="704" y="926"/>
      <point x="695" y="900"/>
      <point x="689" y="874" type="curve"/>
      <point x="694" y="869" type="line"/>
      <point x="850" y="944"/>
      <point x="1025" y="1007"/>
      <point x="1219" y="1067" type="curve"/>
    </contour>
    <contour>
      <point x="1013.76" y="1036.43" type="move" name="gafAbove"/>
    </contour>
    <contour>
      <point x="366.933" y="703.629" type="move" name="markAbove"/>
    </contour>
    <contour>
      <point x="351.573" y="-134.344" type="move" name="markBelow"/>
    </contour>
    <contour>
      <point x="955.733" y="1205.39" type="move" name="dotAbove"/>
    </contour>
    <contour>
      <point x="525.653" y="-151.069" type="move" name="dotBelow"/>
    </contour>
  </outline>
</glyph>
<glyph name="arGaf.init" format="1">
  <advance width="648" height="1368"/>
  <unicode hex="FB94"/>
  <outline>
    <contour>
      <point x="624" y="1022" type="line"/>
      <point x="444" y="967"/>
      <point x="279" y="909"/>
      <point x="132" y="849" type="curve" smooth="yes"/>
      <point x="37" y="810"/>
      <point x="-1" y="754"/>
      <point x="-1" y="683" type="curve" smooth="yes"/>
      <point x="-1" y="650"/>
      <point x="5" y="608"/>
      <point x="21" y="554" type="curve"/>
      <point x="202" y="466"/>
      <point x="354" y="320"/>
      <point x="354" y="269" type="curve" smooth="yes"/>
      <point x="354" y="233"/>
      <point x="229" y="200"/>
      <point x="33" y="200" type="curve" smooth="yes"/>
      <point x="0" y="200" type="line" smooth="yes"/>
      <point x="-48" y="200"/>
      <point x="-70" y="148"/>
      <point x="-70" y="100" type="curve" smooth="yes"/>
      <point x="-70" y="52"/>
      <point x="-48" y="0"/>
      <point x="0" y="0" type="curve" smooth="yes"/>
      <point x="17" y="0" type="line" smooth="yes"/>
      <point x="203" y="0"/>
      <point x="326" y="30"/>
      <point x="384" y="92" type="curve"/>
      <point x="429" y="148"/>
      <point x="457" y="220"/>
      <point x="457" y="312" type="curve" smooth="yes"/>
      <point x="457" y="412"/>
      <point x="388" y="504"/>
      <point x="268" y="588" type="curve"/>
      <point x="302" y="662" type="line"/>
      <point x="231" y="668"/>
      <point x="160" y="676"/>
      <point x="94" y="687" type="curve"/>
      <point x="94" y="690" type="line"/>
      <point x="253" y="757"/>
      <point x="401" y="809"/>
      <point x="536" y="847" type="curve"/>
      <point x="570" y="903"/>
      <point x="600" y="959"/>
      <point x="628" y="1017" type="curve"/>
    </contour>
    <contour>
      <point x="592" y="1153" type="line"/>
      <point x="590" y="1156" type="line"/>
      <point x="424" y="1108"/>
      <point x="252" y="1050"/>
      <point x="70" y="966" type="curve"/>
      <point x="56" y="939"/>
      <point x="44" y="910"/>
      <point x="36" y="881" type="curve"/>
      <point x="41" y="876" type="line"/>
      <point x="176" y="944"/>
      <point x="351" y="1010"/>
      <point x="552" y="1073" type="curve"/>
    </contour>
    <contour>
      <point x="365.227" y="1026.19" type="move" name="gafAbove"/>
    </contour>
    <contour>
      <point x="279" y="1235.42" type="move" name="markAbove"/>
    </contour>
    <contour>
      <point x="220.98" y="-200" type="move" name="markBelow"/>
    </contour>
    <contour>
      <point x="293.547" y="1156" type="move" name="dotAbove"/>
    </contour>
    <contour>
      <point x="252.587" y="-200" type="move" name="dotBelow"/>
    </contour>
  </outline>
</glyph>
<glyph name="arAin.init" format="1">
  <advance width="748"/>
  <outline>
    <contour>
      <point x="584" y="484" type="line"/>
      <point x="526" y="598"/>
      <point x="454" y="664"/>
      <point x="352" y="664" type="curve" smooth="yes"/>
      <point x="263" y="664"/>
      <point x="190" y="609"/>
      <point x="139" y="534" type="curve" smooth="yes"/>
      <point x="98" y="474"/>
      <point x="81" y="412"/>
      <point x="81" y="368" type="curve" smooth="yes"/>
      <point x="81" y="307"/>
      <point x="104" y="256"/>
      <point x="152" y="212" type="curve"/>
      <point x="152" y="209" type="line"/>
      <point x="111" y="201"/>
      <point x="63" y="200"/>
      <point x="14" y="200" type="curve" smooth="yes"/>
      <point x="0" y="200" type="line" smooth="yes"/>
      <point x="-48" y="200"/>
      <point x="-70" y="148"/>
      <point x="-70" y="100" type="curve" smooth="yes"/>
      <point x="-70" y="52"/>
      <point x="-48" y="0"/>
      <point x="0" y="0" type="curve" smooth="yes"/>
      <point x="14" y="0" type="line" smooth="yes"/>
      <point x="78" y="0"/>
      <point x="161" y="14"/>
      <point x="278" y="53" type="curve" smooth="yes"/>
      <point x="379" y="87"/>
      <point x="523" y="111"/>
      <point x="618" y="156" type="curve"/>
      <point x="648" y="216"/>
      <point x="674" y="276"/>
      <point x="698" y="336" type="curve"/>
      <point x="684" y="351" type="line"/>
      <point x="542" y="300"/>
      <point x="445" y="276"/>
      <point x="401" y="276" type="curve" smooth="yes"/>
      <point x="365" y="276"/>
      <point x="324" y="294"/>
      <point x="277" y="334" type="curve"/>
      <point x="238" y="371"/>
      <point x="208" y="419"/>
      <point x="208" y="443" type="curve" smooth="yes"/>
      <point x="208" y="459"/>
      <point x="290" y="506"/>
      <point x="401" y="506" type="curve" smooth="yes"/>
      <point x="448" y="506"/>
      <point x="499" y="488"/>
      <point x="552" y="448" type="curve"/>
    </contour>
    <contour>
      <point x="283.293" y="816.061" type="move" name="dotAbove"/>
    </contour>
    <contour>
      <point x="269.653" y="1299.6" type="move" name="markAbove"/>
    </contour>
    <contour>
      <point x="269.653" y="-413.896" type="move" name="markBelow"/>
    </contour>
    <contour>
      <point x="276.48" y="-137.416" type="move" name="dotBelow"/>
    </contour>
  </outline>
</glyph>
<glyph name="arAlefShort.fina.la" format="1">
  <advance width="479" height="1368"/>
  <outline>
    <contour>
      <point x="200" y="591" type="curve" smooth="yes"/>
      <point x="328" y="422"/>
      <point x="424" y="283"/>
      <point x="450" y="195" type="curve"/>
      <point x="469" y="124"/>
      <point x="493" y="121"/>
      <point x="493" y="121" type="curve"/>
      <point x="503" y="121"/>
      <point x="498" y="138"/>
      <point x="503" y="178" type="curve"/>
      <point x="506" y="226" type="line"/>
      <point x="506" y="398"/>
      <point x="413" y="509"/>
      <point x="291" y="698" type="curve"/>
      <point x="335" y="777" type="line"/>
      <point x="232" y="834"/>
      <point x="153" y="887"/>
      <point x="109" y="933" type="curve"/>
      <point x="95" y="933" type="line"/>
      <point x="75" y="883"/>
      <point x="63" y="840"/>
      <point x="63" y="806" type="curve" smooth="yes"/>
      <point x="63" y="747"/>
      <point x="134" y="678"/>
    </contour>
    <contour>
      <point x="60" y="1059" type="move" name="hamzaAbove"/>
    </contour>
    <contour>
      <point x="134" y="1098" type="move" name="markAbove"/>
    </contour>
    <contour>
      <point x="203" y="-102" type="move" name="hamzaBelow"/>
    </contour>
    <contour>
      <point x="203" y="-52" type="move" name="markBelow"/>
    </contour>
    <contour>
      <point x="134" y="1146" type="move" name="dotAbove"/>
    </contour>
    <contour>
      <point x="225" y="-100" type="move" name="dotBelow"/>
    </contour>
  </outline>
</glyph>
<glyph name="arAlefShort.isol" format="1">
  <advance width="393"/>
  <outline>
    <contour>
      <point x="180" y="-28" type="line"/>
      <point x="214" y="12"/>
      <point x="241" y="51"/>
      <point x="262" y="89" type="curve"/>
      <point x="284" y="123"/>
      <point x="293" y="228"/>
      <point x="293" y="385" type="curve" smooth="yes"/>
      <point x="293" y="579"/>
      <point x="290" y="781"/>
      <point x="270" y="997" type="curve"/>
      <point x="253" y="1006" type="line"/>
      <point x="215" y="969"/>
      <point x="177" y="927"/>
      <point x="137" y="879" type="curve"/>
      <point x="161" y="660"/>
      <point x="171" y="445"/>
      <point x="171" y="229" type="curve" smooth="yes"/>
      <point x="171" y="133"/>
      <point x="168" y="59"/>
      <point x="158" y="-12" type="curve"/>
    </contour>
    <contour>
      <point x="221.867" y="1122.1" type="move" name="markAbove"/>
    </contour>
    <contour>
      <point x="88.7467" y="1132" type="move" name="hamzaAbove"/>
    </contour>
    <contour>
      <point x="93.8667" y="-472.264" type="move" name="hamzaBelow"/>
    </contour>
    <contour>
      <point x="204.8" y="-188.616" type="move" name="markBelow"/>
    </contour>
    <contour>
      <point x="201.387" y="-205.683" type="move" name="dotBelow"/>
    </contour>
    <contour>
      <point x="218.453" y="1159.65" type="move" name="dotAbove"/>
    </contour>
  </outline>
</glyph>
<glyph name="arAlef.fina" format="1">
  <advance width="368"/>
  <outline>
    <contour>
      <point x="368" y="200" type="line"/>
      <point x="354" y="200" type="line" smooth="yes"/>
      <point x="263" y="200"/>
      <point x="223" y="234"/>
      <point x="223" y="334" type="curve" smooth="yes"/>
      <point x="223" y="416"/>
      <point x="225" y="469"/>
      <point x="225" y="574" type="curve" smooth="yes"/>
      <point x="225" y="714"/>
      <point x="223" y="878"/>
      <point x="207" y="1022" type="curve"/>
      <point x="193" y="1029" type="line"/>
      <point x="154" y="995"/>
      <point x="115" y="958"/>
      <point x="78" y="918" type="curve"/>
      <point x="104" y="672"/>
      <point x="113" y="378"/>
      <point x="114" y="264" type="curve" smooth="yes"/>
      <point x="117" y="69"/>
      <point x="215" y="0"/>
      <point x="351" y="0" type="curve" smooth="yes"/>
      <point x="368" y="0" type="line"/>
    </contour>
    <contour>
      <point x="32.4267" y="1118.35" type="move" name="hamzaAbove"/>
    </contour>
    <contour>
      <point x="129.707" y="1166.48" type="move" name="markAbove"/>
    </contour>
    <contour>
      <point x="104.107" y="-400.584" type="move" name="hamzaBelow"/>
    </contour>
    <contour>
      <point x="204.8" y="-134.003" type="move" name="markBelow"/>
    </contour>
    <contour>
      <point x="157.013" y="1180.13" type="move" name="dotAbove"/>
    </contour>
    <contour>
      <point x="221.867" y="-178.376" type="move" name="dotBelow"/>
    </contour>
  </outline>
</glyph>
<glyph name="arAlef.isol" format="1">
  <advance width="318"/>
  <outline>
    <contour>
      <point x="121" y="-28" type="line"/>
      <point x="155" y="12"/>
      <point x="182" y="51"/>
      <point x="203" y="89" type="curve"/>
      <point x="225" y="123"/>
      <point x="234" y="228"/>
      <point x="234" y="385" type="curve" smooth="yes"/>
      <point x="234" y="579"/>
      <point x="231" y="781"/>
      <point x="211" y="997" type="curve"/>
      <point x="194" y="1006" type="line"/>
      <point x="156" y="969"/>
      <point x="118" y="927"/>
      <point x="78" y="879" type="curve"/>
      <point x="102" y="660"/>
      <point x="112" y="445"/>
      <point x="112" y="229" type="curve" smooth="yes"/>
      <point x="112" y="133"/>
      <point x="109" y="59"/>
      <point x="99" y="-12" type="curve"/>
    </contour>
    <contour>
      <point x="27.3067" y="1029.94" type="move" name="hamzaAbove"/>
    </contour>
    <contour>
      <point x="122.88" y="1163.06" type="move" name="markAbove"/>
    </contour>
    <contour>
      <point x="52.9067" y="-451.784" type="move" name="hamzaBelow"/>
    </contour>
    <contour>
      <point x="160.427" y="-157.896" type="move" name="markBelow"/>
    </contour>
    <contour>
      <point x="139.947" y="1186.96" type="move" name="dotAbove"/>
    </contour>
    <contour>
      <point x="150.187" y="-168.136" type="move" name="dotBelow"/>
    </contour>
  </outline>
</glyph>
<glyph name="arBeh.fina" format="1">
  <advance width="1368"/>
  <outline>
    <contour>
      <point x="1368" y="200" type="line"/>
      <point x="1354" y="200" type="line" smooth="yes"/>
      <point x="1271" y="200"/>
      <point x="1201" y="234"/>
      <point x="1201" y="306" type="curve" smooth="yes"/>
      <point x="1201" y="334"/>
      <point x="1211" y="373"/>
      <point x="1225" y="419" type="curve"/>
      <point x="1215" y="427" type="line"/>
      <point x="1192" y="413"/>
      <point x="1165" y="395"/>
      <point x="1136" y="373" type="curve"/>
      <point x="1089" y="243" type="line"/>
      <point x="963" y="194"/>
      <point x="782" y="164"/>
      <point x="644" y="164" type="curve" smooth="yes"/>
      <point x="325" y="164"/>
      <point x="198" y="289"/>
      <point x="198" y="441" type="curve" smooth="yes"/>
      <point x="198" y="477"/>
      <point x="207" y="517"/>
      <point x="221" y="561" type="curve"/>
      <point x="160" y="582" type="line"/>
      <point x="118" y="490"/>
      <point x="100" y="402"/>
      <point x="100" y="317" type="curve" smooth="yes"/>
      <point x="100" y="187"/>
      <point x="155" y="98"/>
      <point x="244" y="40" type="curve" smooth="yes"/>
      <point x="321" y="-9"/>
      <point x="429" y="-44"/>
      <point x="596" y="-44" type="curve" smooth="yes"/>
      <point x="779" y="-44"/>
      <point x="968" y="6"/>
      <point x="1139" y="81" type="curve"/>
      <point x="1142" y="81" type="line"/>
      <point x="1185" y="23"/>
      <point x="1258" y="0"/>
      <point x="1354" y="0" type="curve" smooth="yes"/>
      <point x="1368" y="0" type="line"/>
    </contour>
    <contour>
      <point x="662.187" y="654.477" type="move" name="dotAbove"/>
    </contour>
    <contour>
      <point x="596" y="784.184" type="move" name="markAbove"/>
    </contour>
    <contour>
      <point x="662.187" y="-239.816" type="move" name="dotBelow"/>
    </contour>
    <contour>
      <point x="453.973" y="-270.536" type="move" name="markBelow"/>
    </contour>
    <contour>
      <point x="628.053" y="534.669" type="move" name="hamzaAbove"/>
    </contour>
  </outline>
</glyph>
<glyph name="arBeh.medi" format="1">
  <advance width="468"/>
  <outline>
    <contour>
      <point x="468" y="200" type="line"/>
      <point x="456" y="200" type="line" smooth="yes"/>
      <point x="413" y="200"/>
      <point x="379" y="211"/>
      <point x="349" y="229" type="curve"/>
      <point x="311" y="255"/>
      <point x="300" y="285"/>
      <point x="300" y="332" type="curve" smooth="yes"/>
      <point x="300" y="352"/>
      <point x="307" y="382"/>
      <point x="319" y="424" type="curve"/>
      <point x="312" y="430" type="line"/>
      <point x="281" y="412"/>
      <point x="255" y="394"/>
      <point x="232" y="378" type="curve"/>
      <point x="210" y="332"/>
      <point x="205" y="268"/>
      <point x="150" y="234" type="curve" smooth="yes"/>
      <point x="117" y="214"/>
      <point x="81" y="200"/>
      <point x="14" y="200" type="curve" smooth="yes"/>
      <point x="0" y="200" type="line" smooth="yes"/>
      <point x="-48" y="200"/>
      <point x="-70" y="148"/>
      <point x="-70" y="100" type="curve" smooth="yes"/>
      <point x="-70" y="52"/>
      <point x="-48" y="0"/>
      <point x="0" y="0" type="curve" smooth="yes"/>
      <point x="14" y="0" type="line" smooth="yes"/>
      <point x="101" y="0"/>
      <point x="169" y="38"/>
      <point x="223" y="109" type="curve"/>
      <point x="226" y="109" type="line"/>
      <point x="279" y="18"/>
      <point x="364" y="0"/>
      <point x="455" y="0" type="curve" smooth="yes"/>
      <point x="468" y="0" type="line"/>
    </contour>
    <contour>
      <point x="92.16" y="647.651" type="move" name="dotAbove"/>
    </contour>
    <contour>
      <point x="78.5067" y="569.144" type="move" name="smallVAbove"/>
    </contour>
    <contour>
      <point x="136.533" y="695.437" type="move" name="markAbove"/>
    </contour>
    <contour>
      <point x="126.293" y="-212.509" type="move" name="dotBelow"/>
    </contour>
    <contour>
      <point x="153.6" y="-270.536" type="move" name="markBelow"/>
    </contour>
    <contour>
      <point x="298.667" y="-14.8773" type="move" name="ringBelow"/>
    </contour>
    <contour>
      <point x="-32.4267" y="582.456" type="move" name="hamzaAbove"/>
    </contour>
  </outline>
</glyph>
<glyph name="arHah.fina" format="1">
  <advance width="973"/>
  <outline>
    <contour>
      <point x="486" y="353" type="line"/>
      <point x="284" y="279"/>
      <point x="110" y="101"/>
      <point x="110" y="-128" type="curve" smooth="yes"/>
      <point x="110" y="-385"/>
      <point x="268" y="-540"/>
      <point x="581" y="-540" type="curve" smooth="yes"/>
      <point x="664" y="-540"/>
      <point x="727" y="-530"/>
      <point x="759" y="-509" type="curve" smooth="yes"/>
      <point x="820" y="-470"/>
      <point x="889" y="-415"/>
      <point x="968" y="-343" type="curve"/>
      <point x="957" y="-319" type="line"/>
      <point x="875" y="-338"/>
      <point x="791" y="-346"/>
      <point x="707" y="-346" type="curve" smooth="yes"/>
      <point x="407" y="-346"/>
      <point x="213" y="-222"/>
      <point x="213" y="-70" type="curve" smooth="yes"/>
      <point x="213" y="90"/>
      <point x="472" y="242"/>
      <point x="834" y="311" type="curve"/>
      <point x="906" y="442" type="line"/>
      <point x="899" y="456" type="line"/>
      <point x="785" y="456" type="line" smooth="yes"/>
      <point x="615" y="456"/>
      <point x="470" y="576"/>
      <point x="296" y="576" type="curve" smooth="yes"/>
      <point x="171" y="576"/>
      <point x="103" y="501"/>
      <point x="77" y="376" type="curve"/>
      <point x="142" y="239" type="line"/>
      <point x="161" y="239" type="line"/>
      <point x="212" y="376" type="line"/>
      <point x="234" y="388"/>
      <point x="263" y="393"/>
      <point x="297" y="393" type="curve" smooth="yes"/>
      <point x="339" y="393"/>
      <point x="404" y="380"/>
      <point x="486" y="356" type="curve"/>
    </contour>
    <contour>
      <point x="680" y="231" type="line"/>
      <point x="681" y="10"/>
      <point x="772" y="0"/>
      <point x="959" y="0" type="curve" smooth="yes"/>
      <point x="973" y="0" type="line"/>
      <point x="973" y="200" type="line"/>
      <point x="935" y="200" type="line" smooth="yes"/>
      <point x="837" y="200"/>
      <point x="754" y="203"/>
      <point x="739" y="273" type="curve"/>
    </contour>
    <contour>
      <point x="457.387" y="760.291" type="move" name="dotAbove"/>
    </contour>
    <contour>
      <point x="317.44" y="951.437" type="move" name="markAbove"/>
    </contour>
    <contour>
      <point x="522.24" y="-7.70933" type="move" name="dotBelow"/>
    </contour>
    <contour>
      <point x="307.2" y="-666.483" type="move" name="markBelow"/>
    </contour>
    <contour>
      <point x="368.64" y="712.504" type="move" name="hamzaAbove"/>
    </contour>
  </outline>
</glyph>
<glyph name="arHah.init" format="1">
  <advance width="927"/>
  <outline>
    <contour>
      <point x="520" y="331" type="line"/>
      <point x="362" y="231"/>
      <point x="226" y="200"/>
      <point x="14" y="200" type="curve" smooth="yes"/>
      <point x="0" y="200" type="line" smooth="yes"/>
      <point x="-48" y="200"/>
      <point x="-70" y="148"/>
      <point x="-70" y="100" type="curve" smooth="yes"/>
      <point x="-70" y="52"/>
      <point x="-48" y="0"/>
      <point x="0" y="0" type="curve" smooth="yes"/>
      <point x="14" y="0" type="line" smooth="yes"/>
      <point x="306" y="0"/>
      <point x="439" y="89"/>
      <point x="616" y="249" type="curve" smooth="yes"/>
      <point x="670" y="297"/>
      <point x="716" y="309"/>
      <point x="787" y="309" type="curve"/>
      <point x="822" y="360"/>
      <point x="849" y="407"/>
      <point x="870" y="448" type="curve"/>
      <point x="868" y="456" type="line"/>
      <point x="794" y="456" type="line" smooth="yes"/>
      <point x="711" y="456"/>
      <point x="644" y="467"/>
      <point x="547" y="503" type="curve" smooth="yes"/>
      <point x="431" y="547"/>
      <point x="338" y="572"/>
      <point x="270" y="572" type="curve" smooth="yes"/>
      <point x="166" y="572"/>
      <point x="76" y="517"/>
      <point x="52" y="393" type="curve"/>
      <point x="117" y="266" type="line"/>
      <point x="137" y="266" type="line"/>
      <point x="183" y="371" type="line"/>
      <point x="201" y="383"/>
      <point x="228" y="389"/>
      <point x="266" y="389" type="curve" smooth="yes"/>
      <point x="323" y="389"/>
      <point x="411" y="373"/>
      <point x="520" y="336" type="curve"/>
    </contour>
    <contour>
      <point x="375.951" y="750.78" type="move" name="dotAbove"/>
    </contour>
    <contour>
      <point x="237.227" y="879.416" type="move" name="markAbove"/>
    </contour>
    <contour>
      <point x="384" y="-151.411" type="move" name="dotBelow"/>
    </contour>
    <contour>
      <point x="196.267" y="-287.944" type="move" name="markBelow"/>
    </contour>
    <contour>
      <point x="292.683" y="713.159" type="move" name="hamzaAbove"/>
    </contour>
  </outline>
</glyph>
<glyph name="arHah.isol" format="1">
  <advance width="983"/>
  <outline>
    <contour>
      <point x="486" y="353" type="line"/>
      <point x="284" y="279"/>
      <point x="117" y="101"/>
      <point x="117" y="-128" type="curve" smooth="yes"/>
      <point x="117" y="-385"/>
      <point x="275" y="-540"/>
      <point x="588" y="-540" type="curve" smooth="yes"/>
      <point x="671" y="-540"/>
      <point x="734" y="-530"/>
      <point x="766" y="-509" type="curve" smooth="yes"/>
      <point x="827" y="-470"/>
      <point x="896" y="-415"/>
      <point x="975" y="-343" type="curve"/>
      <point x="964" y="-319" type="line"/>
      <point x="882" y="-338"/>
      <point x="798" y="-346"/>
      <point x="714" y="-346" type="curve" smooth="yes"/>
      <point x="414" y="-346"/>
      <point x="220" y="-222"/>
      <point x="220" y="-70" type="curve" smooth="yes"/>
      <point x="220" y="90"/>
      <point x="472" y="242"/>
      <point x="834" y="311" type="curve"/>
      <point x="906" y="442" type="line"/>
      <point x="899" y="456" type="line"/>
      <point x="785" y="456" type="line" smooth="yes"/>
      <point x="615" y="456"/>
      <point x="470" y="576"/>
      <point x="296" y="576" type="curve" smooth="yes"/>
      <point x="171" y="576"/>
      <point x="103" y="501"/>
      <point x="77" y="376" type="curve"/>
      <point x="142" y="239" type="line"/>
      <point x="161" y="239" type="line"/>
      <point x="212" y="376" type="line"/>
      <point x="234" y="388"/>
      <point x="263" y="393"/>
      <point x="297" y="393" type="curve" smooth="yes"/>
      <point x="339" y="393"/>
      <point x="404" y="380"/>
      <point x="486" y="356" type="curve"/>
    </contour>
    <contour>
      <point x="217.171" y="934.451" type="move" name="markAbove"/>
    </contour>
    <contour>
      <point x="453.976" y="747.183" type="move" name="dotAbove"/>
    </contour>
    <contour>
      <point x="587.646" y="13.186" type="move" name="dotBelow"/>
    </contour>
    <contour>
      <point x="241.262" y="-602.762" type="move" name="markBelow"/>
    </contour>
    <contour>
      <point x="350.024" y="709.061" type="move" name="hamzaAbove"/>
    </contour>
  </outline>
</glyph>
<glyph name="arHamza.isol" format="1">
  <advance width="635"/>
  <outline>
    <contour>
      <point x="569" y="242" type="line"/>
      <point x="491" y="230"/>
      <point x="424" y="225"/>
      <point x="377" y="225" type="curve" smooth="yes"/>
      <point x="274" y="225"/>
      <point x="218" y="263"/>
      <point x="218" y="302" type="curve" smooth="yes"/>
      <point x="218" y="334"/>
      <point x="284" y="363"/>
      <point x="330" y="363" type="curve" smooth="yes"/>
      <point x="385" y="363"/>
      <point x="406" y="332"/>
      <point x="419" y="294" type="curve"/>
      <point x="439" y="292" type="line"/>
      <point x="471" y="330"/>
      <point x="487" y="368"/>
      <point x="487" y="401" type="curve" smooth="yes"/>
      <point x="487" y="470"/>
      <point x="438" y="500"/>
      <point x="380" y="500" type="curve" smooth="yes"/>
      <point x="310" y="500"/>
      <point x="243" y="458"/>
      <point x="177" y="399" type="curve"/>
      <point x="116" y="336"/>
      <point x="86" y="276"/>
      <point x="86" y="218" type="curve" smooth="yes"/>
      <point x="86" y="163"/>
      <point x="124" y="127"/>
      <point x="176" y="100" type="curve"/>
      <point x="152" y="69"/>
      <point x="131" y="36"/>
      <point x="113" y="-1" type="curve"/>
      <point x="129" y="-27" type="line"/>
      <point x="175" y="2"/>
      <point x="227" y="29"/>
      <point x="288" y="46" type="curve" smooth="yes"/>
      <point x="352" y="63"/>
      <point x="419" y="76"/>
      <point x="491" y="82" type="curve"/>
      <point x="575" y="231" type="line"/>
    </contour>
    <contour>
      <point x="293.547" y="633.997" type="move" name="markAbove"/>
    </contour>
    <contour>
      <point x="314.027" y="-140.829" type="move" name="markBelow"/>
    </contour>
  </outline>
</glyph>
<glyph name="arHehDo.isol" format="1">
  <advance width="1085"/>
  <outline>
    <contour>
      <point x="816" y="0" type="curve" smooth="yes"/>
      <point x="889" y="0"/>
      <point x="943" y="33"/>
      <point x="979" y="108" type="curve" smooth="yes"/>
      <point x="1000" y="151"/>
      <point x="1010" y="196"/>
      <point x="1010" y="241" type="curve" smooth="yes"/>
      <point x="1010" y="389"/>
      <point x="897" y="462"/>
      <point x="753" y="559" type="curve" smooth="yes"/>
      <point x="668" y="617"/>
      <point x="593" y="676"/>
      <point x="527" y="736" type="curve"/>
      <point x="510" y="736" type="line"/>
      <point x="497" y="700"/>
      <point x="486" y="663"/>
      <point x="478" y="625" type="curve"/>
      <point x="384" y="556"/>
      <point x="319" y="455"/>
      <point x="318" y="321" type="curve"/>
      <point x="318" y="252"/>
      <point x="331" y="199"/>
      <point x="349" y="150" type="curve"/>
      <point x="251" y="105"/>
      <point x="149" y="64"/>
      <point x="41" y="29" type="curve"/>
      <point x="44" y="-3" type="line"/>
      <point x="136" y="-16"/>
      <point x="211" y="-24"/>
      <point x="271" y="-24" type="curve" smooth="yes"/>
      <point x="335" y="-24"/>
      <point x="416" y="-3"/>
      <point x="526" y="53" type="curve"/>
      <point x="630" y="25"/>
      <point x="737" y="0"/>
    </contour>
    <contour>
      <point x="538" y="235" type="curve"/>
      <point x="447" y="269"/>
      <point x="392" y="314"/>
      <point x="392" y="360" type="curve" smooth="yes"/>
      <point x="392" y="401"/>
      <point x="470" y="484"/>
      <point x="533" y="484" type="curve" smooth="yes"/>
      <point x="601" y="484"/>
      <point x="645" y="397"/>
      <point x="645" y="343" type="curve" smooth="yes"/>
      <point x="645" y="306"/>
      <point x="607" y="263"/>
    </contour>
    <contour>
      <point x="671" y="200" type="curve"/>
      <point x="697" y="252"/>
      <point x="716" y="305"/>
      <point x="724" y="362" type="curve"/>
      <point x="833" y="297"/>
      <point x="906" y="238"/>
      <point x="906" y="193" type="curve" smooth="yes"/>
      <point x="906" y="178"/>
      <point x="884" y="171"/>
      <point x="846" y="171" type="curve" smooth="yes"/>
      <point x="799" y="171"/>
      <point x="736" y="181"/>
    </contour>
    <contour>
      <point x="354.293" y="990.939" type="move" name="markAbove"/>
    </contour>
    <contour>
      <point x="320.756" y="-245.506" type="move" name="markBelow"/>
    </contour>
    <contour>
      <point x="514.866" y="875.61" type="move" name="dotAbove"/>
    </contour>
    <contour>
      <point x="510.72" y="-122.256" type="move" name="dotBelow"/>
    </contour>
  </outline>
</glyph>
<glyph name="arHeh.fina" format="1">
  <advance width="702"/>
  <outline>
    <contour>
      <point x="468" y="113" type="curve"/>
      <point x="511" y="23"/>
      <point x="565" y="0"/>
      <point x="688" y="0" type="curve" smooth="yes"/>
      <point x="702" y="0" type="line"/>
      <point x="702" y="200" type="line"/>
      <point x="688" y="200" type="line" smooth="yes"/>
      <point x="629" y="200"/>
      <point x="605" y="208"/>
      <point x="574" y="235" type="curve"/>
      <point x="544" y="265"/>
      <point x="544" y="329"/>
      <point x="544" y="413" type="curve" smooth="yes"/>
      <point x="544" y="565"/>
      <point x="543" y="684"/>
      <point x="538" y="783" type="curve"/>
      <point x="522" y="788" type="line"/>
      <point x="488" y="758"/>
      <point x="455" y="727"/>
      <point x="423" y="695" type="curve"/>
      <point x="426" y="642" type="line"/>
      <point x="298" y="570"/>
      <point x="187" y="488"/>
      <point x="133" y="372" type="curve" smooth="yes"/>
      <point x="106" y="316"/>
      <point x="92" y="265"/>
      <point x="92" y="218" type="curve" smooth="yes"/>
      <point x="92" y="111"/>
      <point x="185" y="76"/>
      <point x="285" y="76" type="curve" smooth="yes"/>
      <point x="346" y="76"/>
      <point x="407" y="90"/>
    </contour>
    <contour>
      <point x="445" y="282" type="curve"/>
      <point x="401" y="268"/>
      <point x="357" y="261"/>
      <point x="311" y="261" type="curve" smooth="yes"/>
      <point x="256" y="261"/>
      <point x="208" y="273"/>
      <point x="208" y="308" type="curve" smooth="yes"/>
      <point x="208" y="349"/>
      <point x="299" y="420"/>
      <point x="441" y="486" type="curve"/>
      <point x="443" y="431"/>
      <point x="445" y="361"/>
    </contour>
    <contour>
      <point x="283.307" y="903.651" type="move" name="dotAbove"/>
    </contour>
    <contour>
      <point x="285" y="828.557" type="move" name="hamzaAbove"/>
    </contour>
    <contour>
      <point x="180.512" y="1116.1" type="move" name="markAbove"/>
    </contour>
    <contour>
      <point x="273.067" y="-250.056" type="move" name="markBelow"/>
    </contour>
    <contour>
      <point x="372.053" y="-123.763" type="move" name="dotBelow"/>
    </contour>
  </outline>
</glyph>
<glyph name="arHeh.isol" format="1">
  <advance width="696"/>
  <outline>
    <contour>
      <point x="254" y="594" type="line"/>
      <point x="163" y="483"/>
      <point x="100" y="382"/>
      <point x="100" y="236" type="curve" smooth="yes"/>
      <point x="100" y="168"/>
      <point x="129" y="-15"/>
      <point x="329" y="-15" type="curve" smooth="yes"/>
      <point x="418" y="-15"/>
      <point x="511" y="29"/>
      <point x="567" y="106" type="curve"/>
      <point x="594" y="161"/>
      <point x="616" y="224"/>
      <point x="616" y="316" type="curve" smooth="yes"/>
      <point x="616" y="422"/>
      <point x="584" y="486"/>
      <point x="506" y="556" type="curve" smooth="yes"/>
      <point x="439" y="616"/>
      <point x="360" y="667"/>
      <point x="290" y="725" type="curve"/>
      <point x="269" y="711" type="line"/>
    </contour>
    <contour>
      <point x="319" y="481" type="curve"/>
      <point x="450" y="407"/>
      <point x="518" y="338"/>
      <point x="526" y="272" type="curve"/>
      <point x="495" y="219"/>
      <point x="411" y="188"/>
      <point x="345" y="188" type="curve" smooth="yes"/>
      <point x="255" y="188"/>
      <point x="194" y="243"/>
      <point x="194" y="303" type="curve" smooth="yes"/>
      <point x="194" y="346"/>
      <point x="231" y="404"/>
    </contour>
    <contour>
      <point x="186.799" y="792.47" type="move" name="hamzaAbove"/>
    </contour>
    <contour>
      <point x="309.805" y="886.784" type="move" name="dotAbove"/>
    </contour>
    <contour>
      <point x="172.704" y="1052.23" type="move" name="markAbove"/>
    </contour>
    <contour>
      <point x="180.732" y="-197.811" type="move" name="markBelow"/>
    </contour>
    <contour>
      <point x="328.085" y="-139.561" type="move" name="dotBelow"/>
    </contour>
  </outline>
</glyph>
<glyph name="arKeheh.isol" format="1">
  <advance width="1223"/>
  <outline>
    <contour>
      <point x="793.878" y="662.098" type="line"/>
      <point x="763.061" y="686.427"/>
      <point x="735.488" y="705.89"/>
      <point x="673" y="742" type="curve"/>
      <point x="673" y="748" type="line"/>
      <point x="798" y="803"/>
      <point x="947" y="856"/>
      <point x="1117" y="909" type="curve"/>
      <point x="1148" y="964"/>
      <point x="1177" y="1020"/>
      <point x="1203" y="1075" type="curve"/>
      <point x="1196" y="1082" type="line"/>
      <point x="972" y="1008"/>
      <point x="784" y="939"/>
      <point x="680" y="889" type="curve" smooth="yes"/>
      <point x="611" y="857"/>
      <point x="580" y="808"/>
      <point x="580" y="742" type="curve" smooth="yes"/>
      <point x="580" y="703"/>
      <point x="587" y="661"/>
      <point x="600" y="616" type="curve"/>
      <point x="803" y="479"/>
      <point x="936" y="360"/>
      <point x="936" y="259" type="curve"/>
      <point x="848" y="215"/>
      <point x="678" y="187"/>
      <point x="523" y="187" type="curve"/>
      <point x="323" y="188"/>
      <point x="185" y="254"/>
      <point x="185" y="414" type="curve" smooth="yes"/>
      <point x="185" y="450"/>
      <point x="190" y="482"/>
      <point x="198" y="513" type="curve"/>
      <point x="142" y="528" type="line"/>
      <point x="114" y="446"/>
      <point x="100" y="369"/>
      <point x="100" y="297" type="curve" smooth="yes"/>
      <point x="100" y="141"/>
      <point x="176" y="-13"/>
      <point x="496" y="-13" type="curve" smooth="yes"/>
      <point x="664" y="-13"/>
      <point x="854" y="26"/>
      <point x="953" y="80" type="curve"/>
      <point x="1021" y="163"/>
      <point x="1040" y="252"/>
      <point x="1040" y="311" type="curve" smooth="yes"/>
      <point x="1040" y="424"/>
      <point x="995" y="500"/>
      <point x="845" y="630" type="curve"/>
    </contour>
    <contour>
      <point x="283.988" y="747.037" type="move" name="markAbove"/>
    </contour>
    <contour>
      <point x="904.533" y="1019.7" type="move" name="gafAbove"/>
    </contour>
    <contour>
      <point x="270.299" y="-176.189" type="move" name="markBelow"/>
    </contour>
    <contour>
      <point x="861.354" y="1136.05" type="move" name="dotAbove"/>
    </contour>
    <contour>
      <point x="523" y="-147.656" type="move" name="dotBelow"/>
    </contour>
  </outline>
</glyph>
<glyph name="arLam.init" format="1">
  <advance width="407"/>
  <outline>
    <contour>
      <point x="245" y="1029" type="line"/>
      <point x="210" y="1003"/>
      <point x="186" y="978"/>
      <point x="167" y="954" type="curve" smooth="yes"/>
      <point x="148" y="930"/>
      <point x="140" y="898"/>
      <point x="140" y="861" type="curve" smooth="yes"/>
      <point x="140" y="811"/>
      <point x="173" y="589"/>
      <point x="173" y="340" type="curve" smooth="yes"/>
      <point x="173" y="286"/>
      <point x="173" y="258"/>
      <point x="156" y="241" type="curve" smooth="yes"/>
      <point x="127" y="212"/>
      <point x="78" y="200"/>
      <point x="14" y="200" type="curve" smooth="yes"/>
      <point x="0" y="200" type="line" smooth="yes"/>
      <point x="-48" y="200"/>
      <point x="-70" y="148"/>
      <point x="-70" y="100" type="curve" smooth="yes"/>
      <point x="-70" y="52"/>
      <point x="-48" y="0"/>
      <point x="0" y="0" type="curve" smooth="yes"/>
      <point x="14" y="0" type="line" smooth="yes"/>
      <point x="104" y="0"/>
      <point x="158" y="37"/>
      <point x="197" y="90" type="curve"/>
      <point x="218" y="122"/>
      <point x="234" y="158"/>
      <point x="247" y="196" type="curve" smooth="yes"/>
      <point x="269" y="260"/>
      <point x="284" y="328"/>
      <point x="284" y="417" type="curve" smooth="yes"/>
      <point x="284" y="515"/>
      <point x="282" y="609"/>
      <point x="278" y="686" type="curve"/>
      <point x="367" y="754" type="line"/>
      <point x="295" y="874"/>
      <point x="257" y="955"/>
      <point x="257" y="1021" type="curve"/>
    </contour>
    <contour>
      <point x="187.733" y="1156.24" type="move" name="smallVAbove"/>
    </contour>
    <contour>
      <point x="187.733" y="1289.36" type="move" name="markAbove"/>
    </contour>
    <contour>
      <point x="47.25" y="-255.043" type="move" name="markBelow"/>
    </contour>
    <contour>
      <point x="88.7467" y="-171.549" type="move" name="dotBelow"/>
    </contour>
    <contour>
      <point x="177.493" y="1163.06" type="move" name="dotAbove"/>
    </contour>
  </outline>
</glyph>
<glyph name="arLam.isol" format="1">
  <advance width="891"/>
  <outline>
    <contour>
      <point x="729" y="1029" type="line"/>
      <point x="694" y="1003"/>
      <point x="670" y="978"/>
      <point x="651" y="954" type="curve" smooth="yes"/>
      <point x="632" y="930"/>
      <point x="624" y="898"/>
      <point x="624" y="861" type="curve" smooth="yes"/>
      <point x="624" y="822"/>
      <point x="633" y="784"/>
      <point x="637" y="734" type="curve" smooth="yes"/>
      <point x="651" y="571"/>
      <point x="665" y="358"/>
      <point x="665" y="255" type="curve" smooth="yes"/>
      <point x="665" y="214"/>
      <point x="665" y="181"/>
      <point x="663" y="156" type="curve"/>
      <point x="644" y="128"/>
      <point x="608" y="101"/>
      <point x="552" y="73" type="curve" smooth="yes"/>
      <point x="501" y="47"/>
      <point x="447" y="32"/>
      <point x="396" y="32" type="curve" smooth="yes"/>
      <point x="259" y="32"/>
      <point x="185" y="121"/>
      <point x="185" y="236" type="curve" smooth="yes"/>
      <point x="185" y="286"/>
      <point x="201" y="342"/>
      <point x="225" y="403" type="curve"/>
      <point x="172" y="429" type="line"/>
      <point x="125" y="336"/>
      <point x="97" y="235"/>
      <point x="97" y="128" type="curve" smooth="yes"/>
      <point x="97" y="-56"/>
      <point x="204" y="-181"/>
      <point x="372" y="-181" type="curve" smooth="yes"/>
      <point x="494" y="-181"/>
      <point x="646" y="-117"/>
      <point x="720" y="12" type="curve"/>
      <point x="753" y="111"/>
      <point x="768" y="215"/>
      <point x="768" y="349" type="curve" smooth="yes"/>
      <point x="768" y="467"/>
      <point x="766" y="579"/>
      <point x="761" y="686" type="curve"/>
      <point x="851" y="754" type="line"/>
      <point x="779" y="874"/>
      <point x="741" y="955"/>
      <point x="741" y="1021" type="curve"/>
    </contour>
    <contour>
      <point x="663" y="1203.68" type="move" name="smallVAbove"/>
    </contour>
    <contour>
      <point x="297.018" y="805.966" type="move" name="markAbove"/>
    </contour>
    <contour>
      <point x="279.893" y="-390.003" type="move" name="markBelow"/>
    </contour>
    <contour>
      <point x="665.317" y="1221.28" type="move" name="dotAbove"/>
    </contour>
    <contour>
      <point x="399.36" y="-328.563" type="move" name="dotBelow"/>
    </contour>
  </outline>
</glyph>
<glyph name="arLam.medi.la" format="1">
  <advance width="372.257" height="1368"/>
  <outline>
    <contour>
      <point x="-201" y="-27" type="curve" smooth="yes"/>
      <point x="-74" y="-27"/>
      <point x="90" y="28"/>
      <point x="138" y="209" type="curve"/>
      <point x="142" y="209" type="line"/>
      <point x="163" y="68"/>
      <point x="236" y="0"/>
      <point x="366" y="0" type="curve" smooth="yes"/>
      <point x="380" y="0" type="line"/>
      <point x="380" y="200" type="line"/>
      <point x="366" y="200" type="line" smooth="yes"/>
      <point x="268" y="200"/>
      <point x="223" y="276"/>
      <point x="223" y="417" type="curve" smooth="yes"/>
      <point x="223" y="668"/>
      <point x="223" y="870"/>
      <point x="212" y="1025" type="curve"/>
      <point x="200" y="1031" type="line"/>
      <point x="168" y="1005"/>
      <point x="132" y="972"/>
      <point x="92" y="933" type="curve"/>
      <point x="105" y="732"/>
      <point x="113" y="575"/>
      <point x="113" y="442" type="curve" smooth="yes"/>
      <point x="113" y="338"/>
      <point x="78" y="273"/>
      <point x="31" y="225" type="curve"/>
      <point x="11.2359" y="208.922"/>
      <point x="-2.79322" y="198.497"/>
      <point x="-21.3317" y="189.131" type="curve"/>
      <point x="-118.784" y="131.762"/>
      <point x="-246" y="70"/>
      <point x="-392" y="19" type="curve"/>
      <point x="-392" y="0" type="line"/>
      <point x="-341" y="-17"/>
      <point x="-279" y="-27"/>
    </contour>
    <contour>
      <point x="-26.0916" y="962.486" type="move" name="smallVAbove"/>
    </contour>
    <contour>
      <point x="209.067" y="1080.8" type="move" name="markAbove"/>
    </contour>
    <contour>
      <point x="193" y="-52" type="move" name="markBelow"/>
    </contour>
    <contour>
      <point x="198.827" y="-173.597" type="move" name="dotBelow"/>
    </contour>
    <contour>
      <point x="212.48" y="1150.78" type="move" name="dotAbove"/>
    </contour>
  </outline>
</glyph>
<glyph name="arMeem.medi" format="1">
  <advance width="776"/>
  <outline>
    <contour>
      <point x="591" y="82" type="line"/>
      <point x="639" y="12"/>
      <point x="704" y="0"/>
      <point x="762" y="0" type="curve" smooth="yes"/>
      <point x="776" y="0" type="line"/>
      <point x="776" y="200" type="line"/>
      <point x="762" y="200" type="line" smooth="yes"/>
      <point x="691" y="200"/>
      <point x="641" y="225"/>
      <point x="615" y="278" type="curve" smooth="yes"/>
      <point x="554" y="406"/>
      <point x="509" y="539"/>
      <point x="392" y="539" type="curve" smooth="yes"/>
      <point x="354" y="539"/>
      <point x="315" y="522"/>
      <point x="277" y="487" type="curve" smooth="yes"/>
      <point x="240" y="453"/>
      <point x="218" y="408"/>
      <point x="201" y="358" type="curve" smooth="yes"/>
      <point x="168" y="256"/>
      <point x="151" y="200"/>
      <point x="14" y="200" type="curve" smooth="yes"/>
      <point x="0" y="200" type="line" smooth="yes"/>
      <point x="-48" y="200"/>
      <point x="-70" y="148"/>
      <point x="-70" y="100" type="curve" smooth="yes"/>
      <point x="-70" y="52"/>
      <point x="-48" y="0"/>
      <point x="0" y="0" type="curve" smooth="yes"/>
      <point x="14" y="0" type="line" smooth="yes"/>
      <point x="87" y="0"/>
      <point x="150" y="26"/>
      <point x="193" y="112" type="curve"/>
      <point x="197" y="112" type="line"/>
      <point x="281" y="17"/>
      <point x="397" y="-41"/>
      <point x="471" y="-41" type="curve" smooth="yes"/>
      <point x="528" y="-41"/>
      <point x="565" y="3"/>
      <point x="589" y="82" type="curve"/>
    </contour>
    <contour>
      <point x="266" y="308" type="curve"/>
      <point x="291" y="350"/>
      <point x="325" y="373"/>
      <point x="366" y="373" type="curve" smooth="yes"/>
      <point x="453" y="373"/>
      <point x="523" y="231"/>
      <point x="523" y="181" type="curve" smooth="yes"/>
      <point x="523" y="167"/>
      <point x="515" y="160"/>
      <point x="500" y="160" type="curve" smooth="yes"/>
      <point x="435" y="160"/>
      <point x="302" y="225"/>
    </contour>
    <contour>
      <point x="200.634" y="798.61" type="move" name="markAbove"/>
    </contour>
    <contour>
      <point x="203.25" y="-311.36" type="move" name="markBelow"/>
    </contour>
    <contour>
      <point x="373.098" y="652.098" type="move" name="dotAbove"/>
    </contour>
    <contour>
      <point x="364.183" y="-188.805" type="move" name="dotBelow"/>
    </contour>
  </outline>
</glyph>
<glyph name="arOrnateLeft" format="1">
  <advance width="994"/>
  <outline>
    <contour>
      <point x="353" y="508" type="curve"/>
      <point x="338" y="524"/>
      <point x="316" y="537"/>
      <point x="288" y="537" type="curve" smooth="yes"/>
      <point x="250" y="537"/>
      <point x="218" y="519"/>
      <point x="190" y="496" type="curve" smooth="yes"/>
      <point x="149" y="463"/>
      <point x="133" y="418"/>
      <point x="80" y="392" type="curve"/>
      <point x="88" y="371" type="line"/>
      <point x="98" y="376"/>
      <point x="110" y="376"/>
      <point x="120" y="376" type="curve" smooth="yes"/>
      <point x="151" y="376"/>
      <point x="166" y="340"/>
      <point x="196" y="312" type="curve" smooth="yes"/>
      <point x="221" y="287"/>
      <point x="250" y="270"/>
      <point x="288" y="270" type="curve" smooth="yes"/>
      <point x="316" y="270"/>
      <point x="338" y="278"/>
      <point x="353" y="294" type="curve"/>
      <point x="353" y="231"/>
      <point x="385" y="161"/>
      <point x="444" y="105" type="curve"/>
      <point x="460" y="113" type="line"/>
      <point x="454" y="131"/>
      <point x="451" y="148"/>
      <point x="451" y="166" type="curve" smooth="yes"/>
      <point x="451" y="213"/>
      <point x="487" y="244"/>
      <point x="532" y="257" type="curve" smooth="yes"/>
      <point x="577" y="270"/>
      <point x="597" y="291"/>
      <point x="597" y="325" type="curve" smooth="yes"/>
      <point x="597" y="336"/>
      <point x="594" y="347"/>
      <point x="587" y="356" type="curve"/>
      <point x="595" y="359" type="line"/>
      <point x="638" y="321"/>
      <point x="659" y="275"/>
      <point x="659" y="221" type="curve" smooth="yes"/>
      <point x="659" y="133"/>
      <point x="597" y="67"/>
      <point x="500" y="67" type="curve" smooth="yes"/>
      <point x="415" y="67"/>
      <point x="385" y="125"/>
      <point x="341" y="125" type="curve" smooth="yes"/>
      <point x="328" y="125"/>
      <point x="314" y="121"/>
      <point x="306" y="114" type="curve"/>
      <point x="315" y="97" type="line"/>
      <point x="319" y="99"/>
      <point x="323" y="100"/>
      <point x="327" y="100" type="curve" smooth="yes"/>
      <point x="361" y="100"/>
      <point x="376" y="61"/>
      <point x="404" y="23" type="curve" smooth="yes"/>
      <point x="435" y="-20"/>
      <point x="472" y="-54"/>
      <point x="520" y="-54" type="curve" smooth="yes"/>
      <point x="569" y="-54"/>
      <point x="602" y="-25"/>
      <point x="619" y="17" type="curve"/>
      <point x="623" y="14" type="line"/>
      <point x="606" y="-26"/>
      <point x="603" y="-61"/>
      <point x="603" y="-81" type="curve" smooth="yes"/>
      <point x="603" y="-137"/>
      <point x="644" y="-203"/>
      <point x="707" y="-266" type="curve" smooth="yes"/>
      <point x="745" y="-304"/>
      <point x="786" y="-338"/>
      <point x="822" y="-373" type="curve" smooth="yes"/>
      <point x="844" y="-394"/>
      <point x="861" y="-413"/>
      <point x="870" y="-432" type="curve"/>
      <point x="845" y="-438"/>
      <point x="834" y="-453"/>
      <point x="834" y="-472" type="curve" smooth="yes"/>
      <point x="834" y="-493"/>
      <point x="850" y="-509"/>
      <point x="874" y="-509" type="curve" smooth="yes"/>
      <point x="898" y="-509"/>
      <point x="914" y="-491"/>
      <point x="914" y="-470" type="curve" smooth="yes"/>
      <point x="914" y="-445"/>
      <point x="900" y="-422"/>
      <point x="879" y="-391" type="curve" smooth="yes"/>
      <point x="853" y="-355"/>
      <point x="826" y="-317"/>
      <point x="806" y="-279" type="curve" smooth="yes"/>
      <point x="741" y="-158"/>
      <point x="713" y="-30"/>
      <point x="713" y="132" type="curve" smooth="yes"/>
      <point x="713" y="325"/>
      <point x="648" y="381"/>
      <point x="569" y="400" type="curve"/>
      <point x="569" y="402" type="line"/>
      <point x="648" y="421"/>
      <point x="713" y="477"/>
      <point x="713" y="670" type="curve" smooth="yes"/>
      <point x="713" y="832"/>
      <point x="741" y="960"/>
      <point x="806" y="1081" type="curve" smooth="yes"/>
      <point x="826" y="1119"/>
      <point x="853" y="1157"/>
      <point x="879" y="1193" type="curve" smooth="yes"/>
      <point x="900" y="1224"/>
      <point x="914" y="1247"/>
      <point x="914" y="1272" type="curve" smooth="yes"/>
      <point x="914" y="1293"/>
      <point x="898" y="1311"/>
      <point x="874" y="1311" type="curve" smooth="yes"/>
      <point x="850" y="1311"/>
      <point x="834" y="1295"/>
      <point x="834" y="1274" type="curve" smooth="yes"/>
      <point x="834" y="1255"/>
      <point x="845" y="1240"/>
      <point x="870" y="1234" type="curve"/>
      <point x="861" y="1215"/>
      <point x="844" y="1196"/>
      <point x="822" y="1175" type="curve" smooth="yes"/>
      <point x="786" y="1140"/>
      <point x="745" y="1106"/>
      <point x="707" y="1068" type="curve" smooth="yes"/>
      <point x="644" y="1005"/>
      <point x="603" y="939"/>
      <point x="603" y="883" type="curve" smooth="yes"/>
      <point x="603" y="863"/>
      <point x="606" y="828"/>
      <point x="623" y="788" type="curve"/>
      <point x="619" y="785" type="line"/>
      <point x="602" y="827"/>
      <point x="569" y="856"/>
      <point x="520" y="856" type="curve" smooth="yes"/>
      <point x="472" y="856"/>
      <point x="435" y="822"/>
      <point x="404" y="779" type="curve" smooth="yes"/>
      <point x="376" y="741"/>
      <point x="361" y="702"/>
      <point x="327" y="702" type="curve" smooth="yes"/>
      <point x="323" y="702"/>
      <point x="319" y="703"/>
      <point x="315" y="705" type="curve"/>
      <point x="306" y="688" type="line"/>
      <point x="314" y="681"/>
      <point x="328" y="677"/>
      <point x="341" y="677" type="curve" smooth="yes"/>
      <point x="385" y="677"/>
      <point x="415" y="735"/>
      <point x="500" y="735" type="curve" smooth="yes"/>
      <point x="597" y="735"/>
      <point x="659" y="669"/>
      <point x="659" y="581" type="curve" smooth="yes"/>
      <point x="659" y="527"/>
      <point x="638" y="481"/>
      <point x="595" y="443" type="curve"/>
      <point x="587" y="446" type="line"/>
      <point x="594" y="455"/>
      <point x="597" y="466"/>
      <point x="597" y="477" type="curve" smooth="yes"/>
      <point x="597" y="511"/>
      <point x="577" y="532"/>
      <point x="532" y="545" type="curve" smooth="yes"/>
      <point x="487" y="558"/>
      <point x="451" y="589"/>
      <point x="451" y="636" type="curve" smooth="yes"/>
      <point x="451" y="654"/>
      <point x="454" y="671"/>
      <point x="460" y="689" type="curve"/>
      <point x="444" y="697" type="line"/>
      <point x="385" y="641"/>
      <point x="353" y="571"/>
    </contour>
    <contour>
      <point x="440" y="399" type="line"/>
      <point x="412" y="384"/>
      <point x="389" y="363"/>
      <point x="376" y="337" type="curve"/>
      <point x="335" y="345"/>
      <point x="303" y="370"/>
      <point x="303" y="401" type="curve" smooth="yes"/>
      <point x="303" y="432"/>
      <point x="335" y="457"/>
      <point x="376" y="465" type="curve"/>
      <point x="389" y="439"/>
      <point x="412" y="418"/>
      <point x="440" y="403" type="curve"/>
    </contour>
  </outline>
</glyph>
<glyph name="arQaf.fina" format="1">
  <advance width="1042"/>
  <outline>
    <contour>
      <point x="971" y="200" type="line"/>
      <point x="931" y="410"/>
      <point x="854" y="531"/>
      <point x="742" y="531" type="curve" smooth="yes"/>
      <point x="684" y="531"/>
      <point x="629" y="499"/>
      <point x="581" y="442" type="curve" smooth="yes"/>
      <point x="530" y="382"/>
      <point x="506" y="314"/>
      <point x="506" y="241" type="curve" smooth="yes"/>
      <point x="506" y="61"/>
      <point x="633" y="0"/>
      <point x="824" y="0" type="curve" smooth="yes"/>
      <point x="901" y="0" type="line"/>
      <point x="907" y="-10" type="line"/>
      <point x="879" y="-44"/>
      <point x="830" y="-81"/>
      <point x="774" y="-115" type="curve" smooth="yes"/>
      <point x="692" y="-164"/>
      <point x="596" y="-197"/>
      <point x="503" y="-197" type="curve" smooth="yes"/>
      <point x="414" y="-197"/>
      <point x="335" y="-175"/>
      <point x="272" y="-121" type="curve"/>
      <point x="209" y="-59"/>
      <point x="186" y="19"/>
      <point x="186" y="107" type="curve" smooth="yes"/>
      <point x="186" y="161"/>
      <point x="197" y="221"/>
      <point x="214" y="287" type="curve"/>
      <point x="152" y="309" type="line"/>
      <point x="116" y="212"/>
      <point x="93" y="111"/>
      <point x="93" y="6" type="curve" smooth="yes"/>
      <point x="93" y="-255"/>
      <point x="245" y="-403"/>
      <point x="476" y="-403" type="curve" smooth="yes"/>
      <point x="660" y="-403"/>
      <point x="844" y="-303"/>
      <point x="949" y="-151" type="curve"/>
      <point x="966" y="-111"/>
      <point x="977" y="-62"/>
      <point x="986" y="0" type="curve"/>
      <point x="1042" y="0" type="line"/>
      <point x="1042" y="200" type="line"/>
    </contour>
    <contour>
      <point x="870" y="200" type="curve"/>
      <point x="858" y="198"/>
      <point x="845" y="197"/>
      <point x="831" y="197" type="curve" smooth="yes"/>
      <point x="700" y="197"/>
      <point x="593" y="235"/>
      <point x="593" y="293" type="curve" smooth="yes"/>
      <point x="593" y="321"/>
      <point x="635" y="367"/>
      <point x="699" y="367" type="curve" smooth="yes"/>
      <point x="776" y="367"/>
      <point x="833" y="300"/>
    </contour>
    <contour>
      <point x="689.493" y="732.984" type="move" name="dotAbove"/>
    </contour>
    <contour>
      <point x="252.398" y="755.604" type="move" name="markAbove"/>
    </contour>
    <contour>
      <point x="214.067" y="-526.732" type="move" name="markBelow"/>
    </contour>
    <contour>
      <point x="670.721" y="-501.959" type="move" name="dotBelow"/>
    </contour>
  </outline>
</glyph>
<glyph name="arSeen.medi" format="1">
  <advance width="1024"/>
  <outline>
    <contour>
      <point x="1024" y="200" type="line"/>
      <point x="1010" y="200" type="line" smooth="yes"/>
      <point x="896" y="200"/>
      <point x="844" y="234"/>
      <point x="844" y="304" type="curve" smooth="yes"/>
      <point x="844" y="337"/>
      <point x="855" y="380"/>
      <point x="872" y="434" type="curve"/>
      <point x="865" y="441" type="line"/>
      <point x="835" y="426"/>
      <point x="810" y="409"/>
      <point x="785" y="392" type="curve"/>
      <point x="767" y="343"/>
      <point x="757" y="287"/>
      <point x="729" y="251" type="curve" smooth="yes"/>
      <point x="706" y="221"/>
      <point x="676" y="200"/>
      <point x="628" y="200" type="curve" smooth="yes"/>
      <point x="596" y="200"/>
      <point x="578" y="220"/>
      <point x="578" y="263" type="curve" smooth="yes"/>
      <point x="578" y="290"/>
      <point x="599" y="340"/>
      <point x="624" y="399" type="curve"/>
      <point x="616" y="409" type="line"/>
      <point x="587" y="397"/>
      <point x="562" y="385"/>
      <point x="535" y="369" type="curve"/>
      <point x="509" y="321"/>
      <point x="502" y="278"/>
      <point x="463" y="239" type="curve" smooth="yes"/>
      <point x="441" y="218"/>
      <point x="413" y="200"/>
      <point x="368" y="200" type="curve" smooth="yes"/>
      <point x="336" y="200"/>
      <point x="316" y="214"/>
      <point x="316" y="251" type="curve" smooth="yes"/>
      <point x="316" y="282"/>
      <point x="340" y="328"/>
      <point x="377" y="381" type="curve"/>
      <point x="366" y="391" type="line"/>
      <point x="334" y="379"/>
      <point x="305" y="365"/>
      <point x="279" y="351" type="curve"/>
      <point x="245" y="305"/>
      <point x="223" y="267"/>
      <point x="193" y="245" type="curve" smooth="yes"/>
      <point x="155" y="216"/>
      <point x="98" y="200"/>
      <point x="14" y="200" type="curve" smooth="yes"/>
      <point x="0" y="200" type="line" smooth="yes"/>
      <point x="-48" y="200"/>
      <point x="-70" y="148"/>
      <point x="-70" y="100" type="curve" smooth="yes"/>
      <point x="-70" y="52"/>
      <point x="-48" y="0"/>
      <point x="0" y="0" type="curve" smooth="yes"/>
      <point x="14" y="0" type="line" smooth="yes"/>
      <point x="91" y="0"/>
      <point x="161" y="27"/>
      <point x="222" y="76" type="curve"/>
      <point x="240" y="20"/>
      <point x="279" y="0"/>
      <point x="329" y="0" type="curve" smooth="yes"/>
      <point x="395" y="0"/>
      <point x="440" y="31"/>
      <point x="494" y="85" type="curve"/>
      <point x="499" y="85" type="line"/>
      <point x="517" y="28"/>
      <point x="555" y="0"/>
      <point x="610" y="0" type="curve" smooth="yes"/>
      <point x="668" y="0"/>
      <point x="725" y="30"/>
      <point x="779" y="92" type="curve"/>
      <point x="783" y="92" type="line"/>
      <point x="817" y="25"/>
      <point x="898" y="0"/>
      <point x="1010" y="0" type="curve" smooth="yes"/>
      <point x="1024" y="0" type="line"/>
    </contour>
    <contour>
      <point x="577.1" y="634.627" type="move" name="dotAbove"/>
    </contour>
    <contour>
      <point x="140.867" y="896.663" type="move" name="markAbove"/>
    </contour>
    <contour>
      <point x="136.997" y="-303.985" type="move" name="markBelow"/>
    </contour>
  </outline>
</glyph>
<glyph name="arTah.isol" format="1">
  <advance width="1190"/>
  <outline>
    <contour>
      <point x="476" y="338" type="line"/>
      <point x="502" y="402"/>
      <point x="513" y="472"/>
      <point x="513" y="548" type="curve" smooth="yes"/>
      <point x="513" y="593"/>
      <point x="511" y="669"/>
      <point x="509" y="751" type="curve"/>
      <point x="596" y="817" type="line"/>
      <point x="508" y="955"/>
      <point x="485" y="1024"/>
      <point x="485" y="1087" type="curve"/>
      <point x="473" y="1094" type="line"/>
      <point x="395" y="1031"/>
      <point x="371" y="993"/>
      <point x="371" y="944" type="curve" smooth="yes"/>
      <point x="371" y="899"/>
      <point x="382" y="853"/>
      <point x="386" y="808" type="curve" smooth="yes"/>
      <point x="395" y="689"/>
      <point x="401" y="587"/>
      <point x="401" y="487" type="curve" smooth="yes"/>
      <point x="401" y="390"/>
      <point x="399" y="310"/>
      <point x="389" y="244" type="curve"/>
      <point x="358" y="200" type="line"/>
      <point x="262" y="208"/>
      <point x="162" y="219"/>
      <point x="53" y="235" type="curve"/>
      <point x="47" y="223" type="line"/>
      <point x="103" y="155"/>
      <point x="162" y="88"/>
      <point x="224" y="22" type="curve"/>
      <point x="274" y="16" type="line"/>
      <point x="255" y="-96" type="line"/>
      <point x="272" y="-116" type="line"/>
      <point x="304" y="-69"/>
      <point x="335" y="-30"/>
      <point x="365" y="6" type="curve"/>
      <point x="410" y="1"/>
      <point x="459" y="0"/>
      <point x="509" y="0" type="curve" smooth="yes"/>
      <point x="731" y="0"/>
      <point x="937" y="41"/>
      <point x="1032" y="126" type="curve"/>
      <point x="1081" y="183"/>
      <point x="1113" y="288"/>
      <point x="1113" y="344" type="curve" smooth="yes"/>
      <point x="1113" y="477"/>
      <point x="1028" y="591"/>
      <point x="884" y="591" type="curve" smooth="yes"/>
      <point x="749" y="591"/>
      <point x="614" y="490"/>
      <point x="481" y="336" type="curve"/>
    </contour>
    <contour>
      <point x="468" y="197" type="curve"/>
      <point x="612" y="341"/>
      <point x="733" y="409"/>
      <point x="837" y="409" type="curve" smooth="yes"/>
      <point x="922" y="409"/>
      <point x="984" y="346"/>
      <point x="998" y="295" type="curve"/>
      <point x="915" y="229"/>
      <point x="732" y="197"/>
    </contour>
    <contour>
      <point x="816.068" y="749.188" type="move" name="dotAbove"/>
    </contour>
    <contour>
      <point x="763.813" y="1115.58" type="move" name="markAbove"/>
    </contour>
    <contour>
      <point x="404.162" y="-211.203" type="move" name="markBelow"/>
    </contour>
    <contour>
      <point x="747.628" y="-144.008" type="move" name="dotBelow"/>
    </contour>
  </outline>
</glyph>
<glyph name="arYeh.fina" format="1">
  <advance width="1025"/>
  <outline>
    <contour>
      <point x="661" y="200" type="line"/>
      <point x="567" y="36" type="line"/>
      <point x="581" y="18" type="line"/>
      <point x="729" y="12"/>
      <point x="834" y="-7"/>
      <point x="872" y="-50" type="curve"/>
      <point x="745" y="-138"/>
      <point x="619" y="-170"/>
      <point x="494" y="-170" type="curve" smooth="yes"/>
      <point x="318" y="-170"/>
      <point x="193" y="-71"/>
      <point x="193" y="133" type="curve" smooth="yes"/>
      <point x="193" y="192"/>
      <point x="213" y="269"/>
      <point x="255" y="366" type="curve"/>
      <point x="199" y="393" type="line"/>
      <point x="130" y="259"/>
      <point x="88" y="130"/>
      <point x="88" y="9" type="curve" smooth="yes"/>
      <point x="88" y="-233"/>
      <point x="231" y="-377"/>
      <point x="461" y="-377" type="curve" smooth="yes"/>
      <point x="601" y="-377"/>
      <point x="782" y="-318"/>
      <point x="923" y="-194" type="curve"/>
      <point x="955" y="-136"/>
      <point x="975" y="-86"/>
      <point x="975" y="-49" type="curve" smooth="yes"/>
      <point x="975" y="-32"/>
      <point x="974" y="-16"/>
      <point x="971" y="0" type="curve"/>
      <point x="1025" y="0" type="line"/>
      <point x="1025" y="200" type="line"/>
    </contour>
    <contour>
      <point x="324.267" y="453.091" type="move" name="hamzaAbove"/>
    </contour>
    <contour>
      <point x="450.56" y="528.184" type="move" name="markAbove"/>
    </contour>
    <contour>
      <point x="494" y="538.424" type="move" name="smallVAbove"/>
    </contour>
    <contour>
      <point x="211.735" y="-692.069" type="move" name="markBelow"/>
    </contour>
    <contour>
      <point x="510.293" y="-554.184" type="move" name="dotBelow"/>
    </contour>
    <contour>
      <point x="532.48" y="453.091" type="move" name="dotAbove"/>
    </contour>
  </outline>
</glyph>
<glyph name="arYeh.fina2" format="1">
  <advance width="1070"/>
  <outline>
    <contour>
      <point x="1070" y="200" type="line"/>
      <point x="938" y="200" type="line" smooth="yes"/>
      <point x="732" y="200"/>
      <point x="597" y="218"/>
      <point x="463" y="218" type="curve" smooth="yes"/>
      <point x="346" y="218"/>
      <point x="226" y="151"/>
      <point x="124" y="10" type="curve" smooth="yes"/>
      <point x="61" y="-78"/>
      <point x="34" y="-150"/>
      <point x="34" y="-210" type="curve" smooth="yes"/>
      <point x="34" y="-312"/>
      <point x="148" y="-370"/>
      <point x="349" y="-370" type="curve" smooth="yes"/>
      <point x="527" y="-370"/>
      <point x="718" y="-358"/>
      <point x="904" y="-355" type="curve"/>
      <point x="963" y="-295"/>
      <point x="1015" y="-240"/>
      <point x="1063" y="-185" type="curve"/>
      <point x="1060" y="-176" type="line"/>
      <point x="867" y="-176"/>
      <point x="690" y="-186"/>
      <point x="475" y="-186" type="curve" smooth="yes"/>
      <point x="268" y="-186"/>
      <point x="163" y="-145"/>
      <point x="163" y="-102" type="curve" smooth="yes"/>
      <point x="163" y="-71"/>
      <point x="266" y="15"/>
      <point x="415" y="15" type="curve" smooth="yes"/>
      <point x="532" y="15"/>
      <point x="705" y="0"/>
      <point x="903" y="0" type="curve" smooth="yes"/>
      <point x="1070" y="0" type="line"/>
    </contour>
    <contour>
      <point x="501.76" y="373.56" type="move" name="hamzaAbove"/>
    </contour>
    <contour>
      <point x="535.893" y="373.56" type="move" name="markAbove"/>
    </contour>
    <contour>
      <point x="515.413" y="346.253" type="move" name="smallVAbove"/>
    </contour>
    <contour>
      <point x="475" y="-422" type="move" name="markBelow"/>
    </contour>
    <contour>
      <point x="501.76" y="-523.464" type="move" name="dotBelow"/>
    </contour>
    <contour>
      <point x="515.413" y="401.549" type="move" name="dotAbove"/>
    </contour>
  </outline>
</glyph>
<glyph name="arYeh.isol" format="1">
  <advance width="1012"/>
  <outline>
    <contour>
      <point x="888" y="349" type="line"/>
      <point x="921" y="414"/>
      <point x="940" y="466"/>
      <point x="940" y="504" type="curve" smooth="yes"/>
      <point x="940" y="561"/>
      <point x="912" y="663"/>
      <point x="827" y="663" type="curve" smooth="yes"/>
      <point x="744" y="663"/>
      <point x="654" y="603"/>
      <point x="571" y="513" type="curve" smooth="yes"/>
      <point x="494" y="430"/>
      <point x="456" y="335"/>
      <point x="456" y="236" type="curve" smooth="yes"/>
      <point x="456" y="142"/>
      <point x="511" y="81"/>
      <point x="639" y="62" type="curve" smooth="yes"/>
      <point x="732" y="48"/>
      <point x="811" y="34"/>
      <point x="811" y="19" type="curve"/>
      <point x="776" y="-16"/>
      <point x="722" y="-48"/>
      <point x="660" y="-75" type="curve" smooth="yes"/>
      <point x="593" y="-104"/>
      <point x="515" y="-124"/>
      <point x="440" y="-124" type="curve" smooth="yes"/>
      <point x="275" y="-124"/>
      <point x="179" y="3"/>
      <point x="179" y="151" type="curve" smooth="yes"/>
      <point x="179" y="209"/>
      <point x="185" y="267"/>
      <point x="207" y="320" type="curve"/>
      <point x="149" y="337" type="line"/>
      <point x="116" y="263"/>
      <point x="91" y="173"/>
      <point x="91" y="54" type="curve" smooth="yes"/>
      <point x="91" y="-224"/>
      <point x="270" y="-330"/>
      <point x="427" y="-330" type="curve" smooth="yes"/>
      <point x="523" y="-330"/>
      <point x="615" y="-299"/>
      <point x="706" y="-246" type="curve" smooth="yes"/>
      <point x="768" y="-210"/>
      <point x="823" y="-167"/>
      <point x="866" y="-111" type="curve"/>
      <point x="896" y="-46"/>
      <point x="918" y="18"/>
      <point x="918" y="75" type="curve" smooth="yes"/>
      <point x="918" y="144"/>
      <point x="892" y="189"/>
      <point x="845" y="215" type="curve" smooth="yes"/>
      <point x="770" y="257"/>
      <point x="552" y="246"/>
      <point x="552" y="322" type="curve" smooth="yes"/>
      <point x="552" y="354"/>
      <point x="675" y="475"/>
      <point x="769" y="475" type="curve" smooth="yes"/>
      <point x="802" y="475"/>
      <point x="835" y="439"/>
      <point x="863" y="349" type="curve"/>
    </contour>
    <contour>
      <point x="218.453" y="767.117" type="move" name="markAbove"/>
    </contour>
    <contour>
      <point x="361.813" y="616.931" type="move" name="smallVAbove"/>
    </contour>
    <contour>
      <point x="98.9867" y="425.784" type="move" name="hamzaAbove"/>
    </contour>
    <contour>
      <point x="496.64" y="-489.331" type="move" name="dotBelow"/>
    </contour>
    <contour>
      <point x="306.66" y="-658.389" type="move" name="markBelow"/>
    </contour>
    <contour>
      <point x="358.4" y="640.824" type="move" name="dotAbove"/>
    </contour>
  </outline>
</glyph>
<glyph name="di2Dot.below" format="1">
  <advance width="473"/>
  <outline>
    <contour>
      <point x="-2.04878" y="20.1463" type="line"/>
      <point x="37.9512" y="-18.8537"/>
      <point x="76.9512" y="-57.8537"/>
      <point x="114.951" y="-98.8537" type="curve"/>
      <point x="153.951" y="-68.8537"/>
      <point x="186.951" y="-34.8537"/>
      <point x="212.951" y="3.14634" type="curve"/>
      <point x="182.951" y="44.1463"/>
      <point x="144.951" y="86.1463"/>
      <point x="98.9512" y="127.146" type="curve"/>
    </contour>
    <contour>
      <point x="-213.049" y="11.1463" type="line"/>
      <point x="-173.049" y="-27.8537"/>
      <point x="-134.049" y="-66.8537"/>
      <point x="-96.0488" y="-107.854" type="curve"/>
      <point x="-57.0488" y="-77.8537"/>
      <point x="-24.0488" y="-43.8537"/>
      <point x="1.95122" y="-5.85366" type="curve"/>
      <point x="-28.0488" y="35.1463"/>
      <point x="-66.0488" y="77.1463"/>
      <point x="-112.049" y="118.146" type="curve"/>
    </contour>
    <contour>
      <point x="-2" y="6" type="move" name="_dotBelow"/>
    </contour>
    <contour>
      <point x="-41.6189" y="-280.716" type="move" name="markBelowDot"/>
    </contour>
  </outline>
</glyph>
<glyph name="di2VDot.below" format="1">
  <advance width="451"/>
  <outline>
    <contour>
      <point x="-80.2071" y="-211.557" type="line"/>
      <point x="-29.2071" y="-246.557"/>
      <point x="18.7929" y="-282.557"/>
      <point x="57.7929" y="-316.557" type="curve"/>
      <point x="93.7932" y="-285.557"/>
      <point x="121.793" y="-245.557"/>
      <point x="142.793" y="-199.557" type="curve"/>
      <point x="102.793" y="-160.557"/>
      <point x="57.7929" y="-122.557"/>
      <point x="6.79285" y="-88.5573" type="curve"/>
    </contour>
    <contour>
      <point x="-110.207" y="18.4426" type="line"/>
      <point x="-59.2071" y="-16.5574"/>
      <point x="-11.2072" y="-52.5573"/>
      <point x="27.7929" y="-86.5573" type="curve"/>
      <point x="63.7929" y="-55.5573"/>
      <point x="91.7932" y="-15.5574"/>
      <point x="112.793" y="30.4426" type="curve"/>
      <point x="72.7929" y="69.4425"/>
      <point x="27.7929" y="107.443"/>
      <point x="-23.2071" y="141.443" type="curve"/>
    </contour>
    <contour>
      <point x="10.24" y="-492.744" type="move" name="markBelowDot"/>
    </contour>
    <contour>
      <point x="0" y="-2" type="move" name="_dotBelow"/>
    </contour>
  </outline>
</glyph>
<glyph name="di3Dot.above" format="1">
  <advance width="451"/>
  <outline>
    <contour>
      <point x="-0.097561" y="20.1463" type="line"/>
      <point x="39.9024" y="-18.8537"/>
      <point x="78.9024" y="-57.8537"/>
      <point x="116.902" y="-98.8537" type="curve"/>
      <point x="155.902" y="-68.8537"/>
      <point x="188.902" y="-34.8537"/>
      <point x="214.902" y="3.14634" type="curve"/>
      <point x="184.902" y="44.1463"/>
      <point x="146.902" y="86.1463"/>
      <point x="100.902" y="127.146" type="curve"/>
    </contour>
    <contour>
      <point x="-211.098" y="11.1463" type="line"/>
      <point x="-171.098" y="-27.8537"/>
      <point x="-132.098" y="-66.8537"/>
      <point x="-94.0976" y="-107.854" type="curve"/>
      <point x="-55.0976" y="-77.8537"/>
      <point x="-22.0976" y="-43.8537"/>
      <point x="3.90244" y="-5.85366" type="curve"/>
      <point x="-26.0976" y="35.1463"/>
      <point x="-64.0976" y="77.1463"/>
      <point x="-110.098" y="118.146" type="curve"/>
    </contour>
    <contour>
      <point x="-127.098" y="227.146" type="line"/>
      <point x="-87.0976" y="188.146"/>
      <point x="-48.0976" y="149.146"/>
      <point x="-10.0976" y="108.146" type="curve"/>
      <point x="28.9024" y="138.146"/>
      <point x="61.9024" y="172.146"/>
      <point x="87.9024" y="210.146" type="curve"/>
      <point x="57.9024" y="251.146"/>
      <point x="19.9024" y="293.146"/>
      <point x="-26.0976" y="334.146" type="curve"/>
    </contour>
    <contour>
      <point x="-24.0122" y="592.878" type="move" name="markAboveDot"/>
    </contour>
    <contour>
      <point x="6.9878" y="-2.80488" type="move" name="_dotAbove"/>
    </contour>
  </outline>
</glyph>
<glyph name="di3Dot.below" format="1">
  <advance width="451"/>
  <outline>
    <contour>
      <point x="27.3171" y="-242.927" type="line"/>
      <point x="67.3171" y="-281.927"/>
      <point x="106.317" y="-320.927"/>
      <point x="144.317" y="-361.927" type="curve"/>
      <point x="183.317" y="-331.927"/>
      <point x="216.317" y="-297.927"/>
      <point x="242.317" y="-259.927" type="curve"/>
      <point x="212.317" y="-218.927"/>
      <point x="174.317" y="-176.927"/>
      <point x="128.317" y="-135.927" type="curve"/>
    </contour>
    <contour>
      <point x="-183.683" y="-251.927" type="line"/>
      <point x="-143.683" y="-290.927"/>
      <point x="-104.683" y="-329.927"/>
      <point x="-66.6829" y="-370.927" type="curve"/>
      <point x="-27.6829" y="-340.927"/>
      <point x="5.31707" y="-306.927"/>
      <point x="31.3171" y="-268.927" type="curve"/>
      <point x="1.31707" y="-227.927"/>
      <point x="-36.6829" y="-185.927"/>
      <point x="-82.6829" y="-144.927" type="curve"/>
    </contour>
    <contour>
      <point x="-99.6829" y="-35.9268" type="line"/>
      <point x="-59.6829" y="-74.9268"/>
      <point x="-20.6829" y="-113.927"/>
      <point x="17.3171" y="-154.927" type="curve"/>
      <point x="56.3171" y="-124.927"/>
      <point x="89.3171" y="-90.9268"/>
      <point x="115.317" y="-52.9268" type="curve"/>
      <point x="85.3171" y="-11.9268"/>
      <point x="47.3171" y="30.0732"/>
      <point x="1.31707" y="71.0732" type="curve"/>
    </contour>
    <contour>
      <point x="1.70667" y="5.944" type="move" name="_dotBelow"/>
    </contour>
    <contour>
      <point x="22.1867" y="-499.229" type="move" name="markBelowDot"/>
    </contour>
  </outline>
</glyph>
<glyph name="di3IDot.below" format="1">
  <advance width="473"/>
  <outline>
    <contour>
      <point x="-1.07317" y="14.2927" type="line"/>
      <point x="38.9268" y="-24.7073"/>
      <point x="77.9268" y="-63.7073"/>
      <point x="115.927" y="-104.707" type="curve"/>
      <point x="154.927" y="-74.7073"/>
      <point x="187.927" y="-40.7073"/>
      <point x="213.927" y="-2.70732" type="curve"/>
      <point x="183.927" y="38.2927"/>
      <point x="145.927" y="80.2927"/>
      <point x="99.9268" y="121.293" type="curve"/>
    </contour>
    <contour>
      <point x="-212.073" y="5.29268" type="line"/>
      <point x="-172.073" y="-33.7073"/>
      <point x="-133.073" y="-72.7073"/>
      <point x="-95.0732" y="-113.707" type="curve"/>
      <point x="-56.0732" y="-83.7073"/>
      <point x="-23.0732" y="-49.7073"/>
      <point x="2.92683" y="-11.7073" type="curve"/>
      <point x="-27.0732" y="29.2927"/>
      <point x="-65.0732" y="71.2927"/>
      <point x="-111.073" y="112.293" type="curve"/>
    </contour>
    <contour>
      <point x="-81.0732" y="-205.707" type="line"/>
      <point x="-41.0732" y="-244.707"/>
      <point x="-2.07317" y="-283.707"/>
      <point x="35.9268" y="-324.707" type="curve"/>
      <point x="74.9268" y="-294.707"/>
      <point x="107.927" y="-260.707"/>
      <point x="133.927" y="-222.707" type="curve"/>
      <point x="103.927" y="-181.707"/>
      <point x="65.9268" y="-139.707"/>
      <point x="19.9268" y="-98.7073" type="curve"/>
    </contour>
    <contour>
      <point x="-5.57927" y="-576.799" type="move" name="markBelowDot"/>
    </contour>
    <contour>
      <point x="2" y="8" type="move" name="_dotBelow"/>
    </contour>
  </outline>
</glyph>
<glyph name="diFathatan" format="1">
  <advance width="0"/>
  <outline>
    <contour>
      <point x="197.82" y="157.686" type="line"/>
      <point x="193.82" y="161.686" type="line"/>
      <point x="78.8201" y="117.686"/>
      <point x="-44.1799" y="77.686"/>
      <point x="-168.18" y="38.686" type="curve"/>
      <point x="-191.18" y="-54.314" type="line"/>
      <point x="-186.18" y="-60.314" type="line"/>
      <point x="-69.1799" y="-22.314"/>
      <point x="47.8201" y="17.686"/>
      <point x="155.82" y="63.686" type="curve"/>
    </contour>
    <contour>
      <point x="197.82" y="324.686" type="line"/>
      <point x="193.82" y="328.686" type="line"/>
      <point x="78.8201" y="284.686"/>
      <point x="-44.1799" y="244.686"/>
      <point x="-168.18" y="205.686" type="curve"/>
      <point x="-191.18" y="112.686" type="line"/>
      <point x="-186.18" y="106.686" type="line"/>
      <point x="-69.1799" y="144.686"/>
      <point x="47.8201" y="184.686"/>
      <point x="155.82" y="230.686" type="curve"/>
    </contour>
    <contour>
      <point x="1.70667" y="-0.882667" type="move" name="_markAbove"/>
    </contour>
    <contour>
      <point x="-2.86299" y="-1.81116" type="move" name="_markAboveDot"/>
    </contour>
  </outline>
</glyph>
<glyph name="diHamza" format="1">
  <advance width="468"/>
  <outline>
    <contour>
      <point x="202.402" y="204.214" type="line"/>
      <point x="221.402" y="232.214"/>
      <point x="231.402" y="256.214"/>
      <point x="231.402" y="278.214" type="curve" smooth="yes"/>
      <point x="231.402" y="312.214"/>
      <point x="203.402" y="334.214"/>
      <point x="160.402" y="334.214" type="curve" smooth="yes"/>
      <point x="117.402" y="334.214"/>
      <point x="74.402" y="314.214"/>
      <point x="36.402" y="281.214" type="curve" smooth="yes"/>
      <point x="-6.59805" y="242.214"/>
      <point x="-27.598" y="199.214"/>
      <point x="-27.598" y="168.214" type="curve" smooth="yes"/>
      <point x="-27.598" y="130.214"/>
      <point x="-5.59805" y="105.214"/>
      <point x="33.402" y="88.2137" type="curve"/>
      <point x="19.402" y="64.2137"/>
      <point x="6.40195" y="39.2137"/>
      <point x="-5.59805" y="13.2137" type="curve"/>
      <point x="6.40195" y="1.21366" type="line"/>
      <point x="61.402" y="36.2137"/>
      <point x="147.402" y="59.2137"/>
      <point x="256.402" y="73.2137" type="curve"/>
      <point x="272.402" y="100.214"/>
      <point x="286.402" y="127.214"/>
      <point x="297.402" y="154.214" type="curve"/>
      <point x="293.402" y="163.214" type="line"/>
      <point x="258.402" y="161.214"/>
      <point x="229.402" y="160.214"/>
      <point x="192.402" y="160.214" type="curve" smooth="yes"/>
      <point x="107.402" y="160.214"/>
      <point x="61.402" y="187.214"/>
      <point x="61.402" y="213.214" type="curve" smooth="yes"/>
      <point x="61.402" y="228.214"/>
      <point x="88.402" y="247.214"/>
      <point x="128.402" y="248.214" type="curve"/>
      <point x="142.402" y="248.214"/>
      <point x="154.402" y="244.214"/>
      <point x="162.402" y="234.214" type="curve"/>
      <point x="189.402" y="204.214" type="line"/>
    </contour>
    <contour>
      <point x="0" y="2" type="move" name="_hamzaAbove"/>
    </contour>
    <contour>
      <point x="32.4267" y="405.304" type="move" name="markAbove"/>
    </contour>
  </outline>
</glyph>
<glyph name="diLonga.above" format="1">
  <advance width="0"/>
  <outline>
    <contour>
      <point x="29.1205" y="353.03" type="line"/>
      <point x="-43.8795" y="252.03" type="line"/>
      <point x="-22.8795" y="165.03"/>
      <point x="-9.87951" y="88.0298"/>
      <point x="-9.87951" y="9.02976" type="curve"/>
      <point x="7.12049" y="3.02976" type="line"/>
      <point x="27.1205" y="29.0298"/>
      <point x="45.1205" y="56.0298"/>
      <point x="60.1205" y="84.0298" type="curve"/>
      <point x="64.1205" y="93.0298"/>
      <point x="65.1205" y="103.03"/>
      <point x="65.1205" y="114.03" type="curve" smooth="yes"/>
      <point x="65.1205" y="180.03"/>
      <point x="59.1205" y="252.03"/>
      <point x="43.1205" y="347.03" type="curve"/>
    </contour>
    <contour>
      <point x="2" y="2" type="move" name="_markAbove"/>
    </contour>
  </outline>
</glyph>
<glyph name="diMadda" format="1">
  <advance width="0"/>
  <outline>
    <contour>
      <point x="14.6371" y="17.6546" type="line"/>
      <point x="53.6371" y="88.6546" type="line"/>
      <point x="55.6371" y="91.6546"/>
      <point x="62.6371" y="92.6546"/>
      <point x="72.6371" y="92.6546" type="curve" smooth="yes"/>
      <point x="106.637" y="92.6546"/>
      <point x="170.637" y="75.6546"/>
      <point x="250.637" y="75.6546" type="curve" smooth="yes"/>
      <point x="294.637" y="75.6546"/>
      <point x="337.637" y="89.6546"/>
      <point x="375.637" y="124.655" type="curve"/>
      <point x="409.637" y="229.655" type="line"/>
      <point x="397.637" y="236.655" type="line"/>
      <point x="361.637" y="202.655"/>
      <point x="319.637" y="185.655"/>
      <point x="270.637" y="185.655" type="curve" smooth="yes"/>
      <point x="176.637" y="185.655"/>
      <point x="98.6371" y="215.655"/>
      <point x="44.6371" y="215.655" type="curve" smooth="yes"/>
      <point x="-13.3629" y="215.655"/>
      <point x="-46.3629" y="175.655"/>
      <point x="-52.3629" y="97.6546" type="curve"/>
      <point x="-1.36293" y="17.6546" type="line"/>
    </contour>
    <contour>
      <point x="3.71707" y="3.37171" type="move" name="_hamzaAbove"/>
    </contour>
  </outline>
</glyph>
<glyph name="diRing.below" format="1">
  <advance width="0"/>
  <outline>
    <contour>
      <point x="117.265" y="-86.6741" type="curve"/>
      <point x="129.265" y="-55.6741"/>
      <point x="136.265" y="-21.6741"/>
      <point x="136.265" y="13.3259" type="curve" smooth="yes"/>
      <point x="136.265" y="88.3259"/>
      <point x="72.2654" y="163.326"/>
      <point x="7.26537" y="163.326" type="curve" smooth="yes"/>
      <point x="-48.7346" y="163.326"/>
      <point x="-129.735" y="95.3259"/>
      <point x="-129.735" y="-13.6741" type="curve" smooth="yes"/>
      <point x="-129.735" y="-105.674"/>
      <point x="-74.7346" y="-157.674"/>
      <point x="-4.73463" y="-157.674" type="curve" smooth="yes"/>
      <point x="42.2654" y="-157.674"/>
      <point x="86.2654" y="-133.674"/>
    </contour>
    <contour>
      <point x="86.2654" y="-16.6741" type="curve"/>
      <point x="57.2654" y="-37.6741"/>
      <point x="29.2654" y="-49.6741"/>
      <point x="0.265366" y="-49.6741" type="curve" smooth="yes"/>
      <point x="-38.7346" y="-49.6741"/>
      <point x="-80.7346" y="-24.6741"/>
      <point x="-80.7346" y="8.32585" type="curve" smooth="yes"/>
      <point x="-80.7346" y="40.3259"/>
      <point x="-41.7346" y="65.3259"/>
      <point x="-10.7346" y="65.3259" type="curve" smooth="yes"/>
      <point x="24.2654" y="65.3259"/>
      <point x="68.2654" y="39.3259"/>
    </contour>
    <contour>
      <point x="-2" y="0" type="move" name="_ringBelow"/>
    </contour>
  </outline>
</glyph>
<glyph name="diShadda" format="1">
  <advance width="0"/>
  <outline>
    <contour>
      <point x="113.548" y="238.58" type="line"/>
      <point x="94.5483" y="223.58"/>
      <point x="74.5483" y="206.58"/>
      <point x="55.5483" y="188.58" type="curve"/>
      <point x="65.5483" y="161.58"/>
      <point x="73.5483" y="133.58"/>
      <point x="81.5483" y="101.58" type="curve"/>
      <point x="78.5483" y="95.5805"/>
      <point x="72.5483" y="92.5805"/>
      <point x="63.5483" y="92.5805" type="curve" smooth="yes"/>
      <point x="44.5483" y="92.5805"/>
      <point x="29.5483" y="100.58"/>
      <point x="20.5483" y="114.58" type="curve" smooth="yes"/>
      <point x="11.5483" y="128.58"/>
      <point x="5.54829" y="150.58"/>
      <point x="4.54829" y="178.58" type="curve"/>
      <point x="-0.451707" y="181.58" type="line"/>
      <point x="-13.4517" y="174.58"/>
      <point x="-25.4517" y="166.58"/>
      <point x="-38.4517" y="157.58" type="curve"/>
      <point x="-38.4517" y="128.58"/>
      <point x="-39.4517" y="95.5805"/>
      <point x="-45.4517" y="82.5805" type="curve"/>
      <point x="-51.4517" y="71.5805"/>
      <point x="-58.4517" y="64.5805"/>
      <point x="-69.4517" y="64.5805" type="curve" smooth="yes"/>
      <point x="-101.452" y="64.5805"/>
      <point x="-101.452" y="110.58"/>
      <point x="-101.452" y="149.58" type="curve"/>
      <point x="-104.452" y="151.58" type="line"/>
      <point x="-119.452" y="144.58"/>
      <point x="-133.452" y="135.58"/>
      <point x="-146.452" y="126.58" type="curve"/>
      <point x="-151.452" y="102.58"/>
      <point x="-151.452" y="77.5805"/>
      <point x="-151.452" y="53.5805" type="curve" smooth="yes"/>
      <point x="-151.452" y="-16.4195"/>
      <point x="-115.452" y="-48.4195"/>
      <point x="-79.4517" y="-48.4195" type="curve" smooth="yes"/>
      <point x="-48.4517" y="-48.4195"/>
      <point x="-20.4517" y="-29.4195"/>
      <point x="2.54829" y="2.58049" type="curve"/>
      <point x="24.5483" y="-10.4195"/>
      <point x="45.5483" y="-14.4195"/>
      <point x="67.5483" y="-14.4195" type="curve" smooth="yes"/>
      <point x="100.548" y="-14.4195"/>
      <point x="140.548" y="18.5805"/>
      <point x="140.548" y="120.58" type="curve" smooth="yes"/>
      <point x="140.548" y="139.58"/>
      <point x="130.548" y="198.58"/>
      <point x="117.548" y="236.58" type="curve"/>
    </contour>
    <contour>
      <point x="0" y="2" type="move" name="_markAbove"/>
    </contour>
    <contour>
      <point x="2" y="0" type="move" name="_markAboveDot"/>
    </contour>
    <contour>
      <point x="-30.72" y="347.277" type="move" name="markAbove"/>
    </contour>
  </outline>
</glyph>
<glyph name="diSmallV.above" format="1">
  <advance width="0"/>
  <outline>
    <contour>
      <point x="148.323" y="314.225" type="line"/>
      <point x="68.3229" y="233.225"/>
      <point x="32.3229" y="177.225"/>
      <point x="22.3229" y="140.225" type="curve"/>
      <point x="19.3229" y="140.225" type="line"/>
      <point x="8.32293" y="165.225"/>
      <point x="-36.6771" y="223.225"/>
      <point x="-121.677" y="309.225" type="curve"/>
      <point x="-135.677" y="309.225" type="line"/>
      <point x="-170.677" y="209.225" type="line"/>
      <point x="-82.6771" y="131.225"/>
      <point x="-16.6771" y="55.2254"/>
      <point x="0.322927" y="9.22537" type="curve"/>
      <point x="28.3229" y="20.2254" type="line"/>
      <point x="46.3229" y="66.2254"/>
      <point x="92.3229" y="142.225"/>
      <point x="180.323" y="230.225" type="curve"/>
      <point x="173.323" y="262.225"/>
      <point x="165.323" y="286.225"/>
      <point x="154.323" y="314.225" type="curve"/>
    </contour>
    <contour>
      <point x="2" y="2" type="move" name="_smallVAbove"/>
    </contour>
  </outline>
</glyph>
<glyph name="diSukun" format="1">
  <advance width="0"/>
  <outline>
    <contour>
      <point x="124.009" y="80.2254" type="curve"/>
      <point x="136.009" y="111.225"/>
      <point x="143.009" y="145.225"/>
      <point x="143.009" y="180.225" type="curve" smooth="yes"/>
      <point x="143.009" y="255.225"/>
      <point x="79.0088" y="330.225"/>
      <point x="14.0088" y="330.225" type="curve" smooth="yes"/>
      <point x="-41.9912" y="330.225"/>
      <point x="-122.991" y="262.225"/>
      <point x="-122.991" y="153.225" type="curve" smooth="yes"/>
      <point x="-122.991" y="61.2254"/>
      <point x="-67.9912" y="9.22537"/>
      <point x="2.00878" y="9.22537" type="curve" smooth="yes"/>
      <point x="49.0088" y="9.22537"/>
      <point x="93.0088" y="33.2254"/>
    </contour>
    <contour>
      <point x="93.0088" y="150.225" type="curve"/>
      <point x="64.0088" y="129.225"/>
      <point x="36.0088" y="117.225"/>
      <point x="7.00878" y="117.225" type="curve" smooth="yes"/>
      <point x="-31.9912" y="117.225"/>
      <point x="-73.9912" y="142.225"/>
      <point x="-73.9912" y="175.225" type="curve" smooth="yes"/>
      <point x="-73.9912" y="207.225"/>
      <point x="-34.9912" y="232.225"/>
      <point x="-3.99122" y="232.225" type="curve" smooth="yes"/>
      <point x="31.0088" y="232.225"/>
      <point x="75.0088" y="206.225"/>
    </contour>
    <contour>
      <point x="4.26829" y="-1.68293" type="move" name="_markAbove"/>
    </contour>
    <contour>
      <point x="7.63415" y="0" type="move" name="_markAboveDot"/>
    </contour>
  </outline>
</glyph>
<glyph name="diTah.above" format="1">
  <advance width="0"/>
  <outline>
    <contour>
      <point x="6.21458" y="4.06944" type="line"/>
      <point x="64.2146" y="4.06944" type="line" smooth="yes"/>
      <point x="192.215" y="4.06944"/>
      <point x="275.45" y="35.9856"/>
      <point x="305.215" y="120.069" type="curve" smooth="yes"/>
      <point x="315.451" y="148.987"/>
      <point x="320.215" y="175.069"/>
      <point x="320.215" y="199.069" type="curve" smooth="yes"/>
      <point x="320.215" y="258.069"/>
      <point x="275.215" y="311.069"/>
      <point x="221.215" y="311.069" type="curve" smooth="yes"/>
      <point x="165.215" y="311.069"/>
      <point x="116.215" y="274.069"/>
      <point x="71.2146" y="211.069" type="curve"/>
      <point x="68.2146" y="214.069" type="line"/>
      <point x="74.2146" y="228.069"/>
      <point x="77.2146" y="262.069"/>
      <point x="77.2146" y="316.069" type="curve"/>
      <point x="122.215" y="358.069" type="line"/>
      <point x="96.2146" y="401.069"/>
      <point x="75.2146" y="442.069"/>
      <point x="73.2146" y="472.069" type="curve"/>
      <point x="66.2146" y="475.069" type="line"/>
      <point x="20.2146" y="442.069"/>
      <point x="-1.78542" y="414.069"/>
      <point x="-1.78542" y="384.069" type="curve" smooth="yes"/>
      <point x="-1.78542" y="362.069"/>
      <point x="3.99374" y="340.044"/>
      <point x="7.21458" y="313.069" type="curve" smooth="yes"/>
      <point x="11.9939" y="273.042"/>
      <point x="13.2146" y="232.069"/>
      <point x="13.2146" y="192.069" type="curve" smooth="yes"/>
      <point x="13.2146" y="159.069"/>
      <point x="11.2146" y="136.069"/>
      <point x="2.21458" y="114.069" type="curve"/>
      <point x="-36.7854" y="114.069"/>
      <point x="-67.7854" y="116.069"/>
      <point x="-98.7854" y="119.069" type="curve"/>
      <point x="-108.785" y="99.0694" type="line"/>
    </contour>
    <contour>
      <point x="53.2146" y="112.069" type="curve"/>
      <point x="95.2146" y="168.069"/>
      <point x="138.215" y="208.069"/>
      <point x="188.215" y="208.069" type="curve" smooth="yes"/>
      <point x="227.215" y="208.069"/>
      <point x="250.215" y="190.069"/>
      <point x="263.215" y="158.069" type="curve"/>
      <point x="219.215" y="127.069"/>
      <point x="148.215" y="114.069"/>
    </contour>
    <contour>
      <point x="1.70667" y="5.944" type="move" name="_hamzaAbove"/>
    </contour>
  </outline>
</glyph>
<glyph name="diWasla" format="1">
  <advance width="458"/>
  <outline>
    <contour>
      <point x="-139.74" y="-14.2039" type="line"/>
      <point x="-115.74" y="13.7961"/>
      <point x="-95.7395" y="35.7961"/>
      <point x="-87.7395" y="35.7961" type="curve" smooth="yes"/>
      <point x="-72.7395" y="35.7961"/>
      <point x="-14.7395" y="0.796098"/>
      <point x="77.2605" y="0.796098" type="curve" smooth="yes"/>
      <point x="214.26" y="0.796098"/>
      <point x="228.26" y="141.796"/>
      <point x="228.26" y="161.796" type="curve" smooth="yes"/>
      <point x="228.26" y="249.796"/>
      <point x="169.26" y="278.796"/>
      <point x="129.26" y="278.796" type="curve" smooth="yes"/>
      <point x="56.2605" y="278.796"/>
      <point x="3.26049" y="223.796"/>
      <point x="-54.7395" y="147.796" type="curve"/>
      <point x="-73.7395" y="157.796"/>
      <point x="-86.7395" y="162.796"/>
      <point x="-95.7395" y="162.796" type="curve" smooth="yes"/>
      <point x="-110.74" y="162.796"/>
      <point x="-129.74" y="143.796"/>
      <point x="-155.74" y="93.7961" type="curve"/>
      <point x="-155.74" y="-3.2039" type="line"/>
    </contour>
    <contour>
      <point x="-11.7395" y="126.796" type="curve"/>
      <point x="21.2605" y="164.796"/>
      <point x="59.2605" y="191.796"/>
      <point x="103.26" y="191.796" type="curve" smooth="yes"/>
      <point x="138.26" y="191.796"/>
      <point x="165.26" y="168.796"/>
      <point x="172.26" y="128.796" type="curve"/>
      <point x="162.26" y="109.796"/>
      <point x="136.26" y="101.796"/>
      <point x="100.26" y="101.796" type="curve" smooth="yes"/>
      <point x="67.2605" y="101.796"/>
      <point x="29.2605" y="110.796"/>
    </contour>
    <contour>
      <point x="-43.518" y="369.036" type="move" name="markAbove"/>
    </contour>
    <contour>
      <point x="0" y="2" type="move" name="_hamzaAbove"/>
    </contour>
  </outline>
</glyph>
<glyph name="dig4" format="1">
  <advance width="747"/>
  <outline>
    <contour>
      <point x="461" y="945" type="line"/>
      <point x="369" y="903"/>
      <point x="284" y="853"/>
      <point x="206" y="793" type="curve" smooth="yes"/>
      <point x="142" y="744"/>
      <point x="109" y="674"/>
      <point x="109" y="583" type="curve" smooth="yes"/>
      <point x="109" y="471"/>
      <point x="164" y="428"/>
      <point x="254" y="410" type="curve"/>
      <point x="254" y="406" type="line"/>
      <point x="200" y="351"/>
      <point x="172" y="285"/>
      <point x="172" y="209" type="curve" smooth="yes"/>
      <point x="172" y="51"/>
      <point x="275" y="0"/>
      <point x="427" y="0" type="curve" smooth="yes"/>
      <point x="474" y="0"/>
      <point x="518" y="3"/>
      <point x="551" y="14" type="curve"/>
      <point x="594" y="69"/>
      <point x="634" y="129"/>
      <point x="671" y="192" type="curve"/>
      <point x="661" y="205" type="line"/>
      <point x="616" y="198"/>
      <point x="563" y="196"/>
      <point x="499" y="196" type="curve" smooth="yes"/>
      <point x="336" y="196"/>
      <point x="290" y="254"/>
      <point x="290" y="281" type="curve" smooth="yes"/>
      <point x="290" y="313"/>
      <point x="372" y="361"/>
      <point x="506" y="424" type="curve"/>
      <point x="556" y="566" type="line"/>
      <point x="519" y="562"/>
      <point x="482" y="561"/>
      <point x="443" y="561" type="curve" smooth="yes"/>
      <point x="335" y="561"/>
      <point x="239" y="590"/>
      <point x="204" y="641" type="curve"/>
      <point x="246" y="672"/>
      <point x="318" y="712"/>
      <point x="411" y="759" type="curve"/>
      <point x="436" y="816"/>
      <point x="457" y="871"/>
      <point x="474" y="928" type="curve"/>
    </contour>
  </outline>
</glyph>
<glyph name="legLA.fina" format="1">
  <advance width="858"/>
  <outline>
    <contour>
      <point x="335" y="777" type="line"/>
      <point x="232" y="834"/>
      <point x="153" y="887"/>
      <point x="109" y="933" type="curve"/>
      <point x="95" y="933" type="line"/>
      <point x="75" y="883"/>
      <point x="63" y="840"/>
      <point x="63" y="806" type="curve" smooth="yes"/>
      <point x="63" y="747"/>
      <point x="134" y="678"/>
      <point x="200" y="591" type="curve" smooth="yes"/>
      <point x="328" y="422"/>
      <point x="424" y="283"/>
      <point x="450" y="195" type="curve"/>
      <point x="355" y="128"/>
      <point x="232" y="70"/>
      <point x="86" y="19" type="curve"/>
      <point x="86" y="0" type="line"/>
      <point x="137" y="-17"/>
      <point x="199" y="-27"/>
      <point x="277" y="-27" type="curve" smooth="yes"/>
      <point x="404" y="-27"/>
      <point x="568" y="28"/>
      <point x="616" y="209" type="curve"/>
      <point x="620" y="209" type="line"/>
      <point x="641" y="68"/>
      <point x="714" y="0"/>
      <point x="844" y="0" type="curve" smooth="yes"/>
      <point x="858" y="0" type="line"/>
      <point x="858" y="200" type="line"/>
      <point x="844" y="200" type="line" smooth="yes"/>
      <point x="746" y="200"/>
      <point x="701" y="276"/>
      <point x="701" y="417" type="curve" smooth="yes"/>
      <point x="701" y="668"/>
      <point x="701" y="870"/>
      <point x="690" y="1025" type="curve"/>
      <point x="678" y="1031" type="line"/>
      <point x="646" y="1005"/>
      <point x="610" y="972"/>
      <point x="570" y="933" type="curve"/>
      <point x="583" y="732"/>
      <point x="591" y="575"/>
      <point x="591" y="442" type="curve" smooth="yes"/>
      <point x="591" y="338"/>
      <point x="556" y="273"/>
      <point x="509" y="225" type="curve"/>
      <point x="506" y="226" type="line"/>
      <point x="506" y="398"/>
      <point x="413" y="509"/>
      <point x="291" y="698" type="curve"/>
    </contour>
    <contour>
      <point x="138" y="-306" type="move" name="markBelow"/>
    </contour>
    <contour>
      <point x="770.71" y="1230.42" type="move" name="markAbove_1"/>
    </contour>
    <contour>
      <point x="170.667" y="1084.22" type="move" name="hamzaAbove"/>
    </contour>
    <contour>
      <point x="204.8" y="-380.104" type="move" name="hamzaBelow"/>
    </contour>
    <contour>
      <point x="518.827" y="1087.63" type="move" name="smallVAbove"/>
    </contour>
    <contour>
      <point x="150.187" y="1196.86" type="move" name="markAbove_2"/>
    </contour>
  </outline>
</glyph>
<glyph name="legSalah" format="1">
  <advance width="2417"/>
  <outline>
    <contour>
      <point x="536" y="716" type="line"/>
      <point x="546" y="669"/>
      <point x="574" y="645"/>
      <point x="615" y="645" type="curve" smooth="yes"/>
      <point x="657" y="645"/>
      <point x="712" y="673"/>
      <point x="730" y="708" type="curve"/>
      <point x="733" y="708" type="line"/>
      <point x="762" y="670"/>
      <point x="799" y="652"/>
      <point x="836" y="652" type="curve" smooth="yes"/>
      <point x="878" y="652"/>
      <point x="911" y="709"/>
      <point x="911" y="772" type="curve" smooth="yes"/>
      <point x="911" y="839"/>
      <point x="873" y="982"/>
      <point x="873" y="1058" type="curve"/>
      <point x="867" y="1062" type="line"/>
      <point x="853" y="1043"/>
      <point x="843" y="1024"/>
      <point x="835" y="1005" type="curve"/>
      <point x="835" y="953"/>
      <point x="874" y="777"/>
      <point x="874" y="750" type="curve" smooth="yes"/>
      <point x="874" y="735"/>
      <point x="863" y="727"/>
      <point x="847" y="727" type="curve" smooth="yes"/>
      <point x="825" y="727"/>
      <point x="806" y="736"/>
      <point x="787" y="747" type="curve"/>
      <point x="753" y="762"/>
      <point x="742" y="796"/>
      <point x="742" y="843" type="curve"/>
      <point x="737" y="1033" type="line"/>
      <point x="732" y="1037" type="line"/>
      <point x="721" y="1026"/>
      <point x="708" y="1011"/>
      <point x="697" y="994" type="curve"/>
      <point x="704" y="778" type="line"/>
      <point x="704" y="757"/>
      <point x="692" y="744"/>
      <point x="676" y="734" type="curve" smooth="yes"/>
      <point x="660" y="725"/>
      <point x="644" y="721"/>
      <point x="627" y="721" type="curve" smooth="yes"/>
      <point x="588" y="721"/>
      <point x="565" y="746"/>
      <point x="565" y="785" type="curve" smooth="yes"/>
      <point x="565" y="906" type="line"/>
      <point x="607" y="964" type="line"/>
      <point x="604" y="971" type="line"/>
      <point x="568" y="954" type="line"/>
      <point x="569" y="1021" type="line"/>
      <point x="563" y="1022" type="line"/>
      <point x="550" y="1010"/>
      <point x="539" y="998"/>
      <point x="528" y="984" type="curve"/>
      <point x="529" y="935" type="line"/>
      <point x="472" y="906"/>
      <point x="429" y="874"/>
      <point x="396" y="838" type="curve" smooth="yes"/>
      <point x="367" y="806"/>
      <point x="345" y="749"/>
      <point x="345" y="723" type="curve" smooth="yes"/>
      <point x="345" y="689"/>
      <point x="381" y="671"/>
      <point x="428" y="671" type="curve" smooth="yes"/>
      <point x="482" y="671"/>
      <point x="492" y="679"/>
      <point x="533" y="716" type="curve"/>
    </contour>
    <contour>
      <point x="529" y="757" type="line"/>
      <point x="497" y="744"/>
      <point x="473" y="743"/>
      <point x="449" y="743" type="curve" smooth="yes"/>
      <point x="416" y="743"/>
      <point x="389" y="755"/>
      <point x="389" y="775" type="curve" smooth="yes"/>
      <point x="389" y="794"/>
      <point x="439" y="830"/>
      <point x="528" y="878" type="curve"/>
    </contour>
    <contour>
      <point x="712" y="1082" type="line"/>
      <point x="725" y="1069"/>
      <point x="738" y="1066"/>
      <point x="749" y="1066" type="curve" smooth="yes"/>
      <point x="773" y="1066"/>
      <point x="785" y="1094"/>
      <point x="785" y="1113" type="curve" smooth="yes"/>
      <point x="785" y="1121"/>
      <point x="786" y="1140"/>
      <point x="780" y="1200" type="curve"/>
      <point x="777" y="1201" type="line"/>
      <point x="770" y="1192"/>
      <point x="764" y="1183"/>
      <point x="757" y="1172" type="curve"/>
      <point x="762" y="1147"/>
      <point x="765" y="1129"/>
      <point x="765" y="1120" type="curve" smooth="yes"/>
      <point x="765" y="1114"/>
      <point x="761" y="1111"/>
      <point x="755" y="1111" type="curve" smooth="yes"/>
      <point x="749" y="1111"/>
      <point x="742" y="1114"/>
      <point x="737" y="1117" type="curve" smooth="yes"/>
      <point x="723" y="1125"/>
      <point x="719" y="1142"/>
      <point x="719" y="1162" type="curve" smooth="yes"/>
      <point x="719" y="1167"/>
      <point x="719" y="1172"/>
      <point x="720" y="1178" type="curve"/>
      <point x="719" y="1179" type="line"/>
      <point x="703" y="1170" type="line"/>
      <point x="696" y="1125" type="line"/>
      <point x="693" y="1111"/>
      <point x="684" y="1101"/>
      <point x="673" y="1101" type="curve" smooth="yes"/>
      <point x="659" y="1101"/>
      <point x="656" y="1112"/>
      <point x="656" y="1125" type="curve" smooth="yes"/>
      <point x="656" y="1136"/>
      <point x="658" y="1149"/>
      <point x="663" y="1163" type="curve"/>
      <point x="662" y="1165" type="line"/>
      <point x="644" y="1153" type="line"/>
      <point x="639" y="1139"/>
      <point x="637" y="1124"/>
      <point x="637" y="1110" type="curve" smooth="yes"/>
      <point x="637" y="1075"/>
      <point x="649" y="1055"/>
      <point x="673" y="1055" type="curve" smooth="yes"/>
      <point x="686" y="1055"/>
      <point x="700" y="1061"/>
      <point x="710" y="1082" type="curve"/>
    </contour>
    <contour>
      <point x="1026" y="1254" type="line"/>
      <point x="1011" y="1238"/>
      <point x="998" y="1223"/>
      <point x="989" y="1207" type="curve" smooth="yes"/>
      <point x="980" y="1191"/>
      <point x="979" y="1172"/>
      <point x="979" y="1145" type="curve" smooth="yes"/>
      <point x="979" y="1013"/>
      <point x="997" y="873"/>
      <point x="997" y="731" type="curve" smooth="yes"/>
      <point x="997" y="697"/>
      <point x="993" y="675"/>
      <point x="988" y="657" type="curve"/>
      <point x="996" y="652" type="line"/>
      <point x="1008" y="669"/>
      <point x="1019" y="691"/>
      <point x="1029" y="716" type="curve" smooth="yes"/>
      <point x="1036" y="735"/>
      <point x="1037" y="753"/>
      <point x="1037" y="775" type="curve" smooth="yes"/>
      <point x="1037" y="848"/>
      <point x="1030" y="961"/>
      <point x="1025" y="1077" type="curve"/>
      <point x="1062" y="1102" type="line"/>
      <point x="1043" y="1143"/>
      <point x="1030" y="1183"/>
      <point x="1030" y="1224" type="curve" smooth="yes"/>
      <point x="1030" y="1232"/>
      <point x="1031" y="1241"/>
      <point x="1034" y="1249" type="curve"/>
    </contour>
    <contour>
      <point x="1302" y="1125" type="line"/>
      <point x="1315" y="1112"/>
      <point x="1328" y="1109"/>
      <point x="1339" y="1109" type="curve" smooth="yes"/>
      <point x="1363" y="1109"/>
      <point x="1375" y="1137"/>
      <point x="1375" y="1156" type="curve" smooth="yes"/>
      <point x="1375" y="1164"/>
      <point x="1376" y="1183"/>
      <point x="1370" y="1243" type="curve"/>
      <point x="1367" y="1244" type="line"/>
      <point x="1360" y="1235"/>
      <point x="1354" y="1226"/>
      <point x="1347" y="1215" type="curve"/>
      <point x="1352" y="1190"/>
      <point x="1355" y="1172"/>
      <point x="1355" y="1163" type="curve" smooth="yes"/>
      <point x="1355" y="1157"/>
      <point x="1351" y="1154"/>
      <point x="1345" y="1154" type="curve" smooth="yes"/>
      <point x="1339" y="1154"/>
      <point x="1332" y="1157"/>
      <point x="1327" y="1160" type="curve" smooth="yes"/>
      <point x="1313" y="1168"/>
      <point x="1309" y="1185"/>
      <point x="1309" y="1205" type="curve" smooth="yes"/>
      <point x="1309" y="1210"/>
      <point x="1309" y="1215"/>
      <point x="1310" y="1221" type="curve"/>
      <point x="1309" y="1222" type="line"/>
      <point x="1293" y="1213" type="line"/>
      <point x="1286" y="1168" type="line"/>
      <point x="1283" y="1154"/>
      <point x="1274" y="1144"/>
      <point x="1263" y="1144" type="curve" smooth="yes"/>
      <point x="1249" y="1144"/>
      <point x="1246" y="1155"/>
      <point x="1246" y="1168" type="curve" smooth="yes"/>
      <point x="1246" y="1179"/>
      <point x="1248" y="1192"/>
      <point x="1253" y="1206" type="curve"/>
      <point x="1252" y="1208" type="line"/>
      <point x="1234" y="1196" type="line"/>
      <point x="1229" y="1182"/>
      <point x="1227" y="1167"/>
      <point x="1227" y="1153" type="curve" smooth="yes"/>
      <point x="1227" y="1118"/>
      <point x="1239" y="1098"/>
      <point x="1263" y="1098" type="curve" smooth="yes"/>
      <point x="1276" y="1098"/>
      <point x="1290" y="1104"/>
      <point x="1300" y="1125" type="curve"/>
    </contour>
    <contour>
      <point x="1221" y="803" type="line"/>
      <point x="1277" y="836"/>
      <point x="1387" y="882"/>
      <point x="1526" y="937" type="curve"/>
      <point x="1635" y="978"/>
      <point x="1742" y="1018"/>
      <point x="1827" y="1046" type="curve"/>
      <point x="1868" y="1113" type="line"/>
      <point x="1865" y="1117" type="line"/>
      <point x="1607" y="1033"/>
      <point x="1403" y="955"/>
      <point x="1243" y="882" type="curve"/>
      <point x="1217" y="807" type="line"/>
    </contour>
    <contour>
      <point x="1376" y="433" type="line"/>
      <point x="1392" y="445"/>
      <point x="1408" y="462"/>
      <point x="1422" y="482" type="curve"/>
      <point x="1457" y="466"/>
      <point x="1493" y="462"/>
      <point x="1530" y="462" type="curve" smooth="yes"/>
      <point x="1629" y="462"/>
      <point x="1702" y="494"/>
      <point x="1745" y="557" type="curve" smooth="yes"/>
      <point x="1765" y="588"/>
      <point x="1775" y="625"/>
      <point x="1775" y="659" type="curve" smooth="yes"/>
      <point x="1775" y="693"/>
      <point x="1763" y="722"/>
      <point x="1737" y="748" type="curve"/>
      <point x="1712" y="770"/>
      <point x="1685" y="781"/>
      <point x="1654" y="781" type="curve" smooth="yes"/>
      <point x="1616" y="781"/>
      <point x="1576" y="762"/>
      <point x="1541" y="733" type="curve" smooth="yes"/>
      <point x="1488" y="689"/>
      <point x="1452" y="630"/>
      <point x="1423" y="568" type="curve"/>
      <point x="1406" y="579"/>
      <point x="1390" y="593"/>
      <point x="1375" y="610" type="curve"/>
      <point x="1371" y="614"/>
      <point x="1369" y="614"/>
      <point x="1366" y="610" type="curve"/>
      <point x="1343" y="574"/>
      <point x="1324" y="551"/>
      <point x="1309" y="542" type="curve" smooth="yes"/>
      <point x="1296" y="534"/>
      <point x="1283" y="532"/>
      <point x="1272" y="532" type="curve" smooth="yes"/>
      <point x="1214" y="532"/>
      <point x="1187" y="582"/>
      <point x="1187" y="678" type="curve" smooth="yes"/>
      <point x="1187" y="870"/>
      <point x="1187" y="1069"/>
      <point x="1178" y="1271" type="curve"/>
      <point x="1173" y="1274" type="line"/>
      <point x="1160" y="1257"/>
      <point x="1146" y="1239"/>
      <point x="1134" y="1218" type="curve"/>
      <point x="1134" y="1053"/>
      <point x="1141" y="855"/>
      <point x="1141" y="739" type="curve" smooth="yes"/>
      <point x="1141" y="640"/>
      <point x="1130" y="601"/>
      <point x="1052" y="567" type="curve"/>
      <point x="928" y="518"/>
      <point x="848" y="476"/>
      <point x="805" y="404" type="curve"/>
      <point x="793" y="382"/>
      <point x="778" y="355"/>
      <point x="778" y="335" type="curve" smooth="yes"/>
      <point x="778" y="251"/>
      <point x="893" y="232"/>
      <point x="1131" y="232" type="curve" smooth="yes"/>
      <point x="1440" y="232"/>
      <point x="1637" y="275"/>
      <point x="1775" y="294" type="curve"/>
      <point x="1833" y="370" type="line"/>
      <point x="1831" y="374" type="line"/>
      <point x="1586" y="337"/>
      <point x="1427" y="316"/>
      <point x="1158" y="316" type="curve" smooth="yes"/>
      <point x="1048" y="316"/>
      <point x="979" y="321"/>
      <point x="902" y="338" type="curve"/>
      <point x="856" y="351"/>
      <point x="835" y="365"/>
      <point x="835" y="380" type="curve" smooth="yes"/>
      <point x="835" y="406"/>
      <point x="907" y="433"/>
      <point x="1002" y="472" type="curve" smooth="yes"/>
      <point x="1058" y="496"/>
      <point x="1113" y="532"/>
      <point x="1137" y="589" type="curve"/>
      <point x="1140" y="589" type="line"/>
      <point x="1156" y="479"/>
      <point x="1198" y="449"/>
      <point x="1251" y="449" type="curve" smooth="yes"/>
      <point x="1291" y="449"/>
      <point x="1324" y="482"/>
      <point x="1353" y="535" type="curve"/>
      <point x="1356" y="535" type="line"/>
      <point x="1367" y="520"/>
      <point x="1377" y="509"/>
      <point x="1392" y="499" type="curve"/>
      <point x="1372" y="436" type="line"/>
    </contour>
    <contour>
      <point x="1446" y="553" type="curve"/>
      <point x="1472" y="599"/>
      <point x="1503" y="641"/>
      <point x="1550" y="674" type="curve" smooth="yes"/>
      <point x="1579" y="693"/>
      <point x="1608" y="703"/>
      <point x="1637" y="703" type="curve" smooth="yes"/>
      <point x="1659" y="703"/>
      <point x="1681" y="694"/>
      <point x="1698" y="680" type="curve" smooth="yes"/>
      <point x="1717" y="665"/>
      <point x="1731" y="641"/>
      <point x="1731" y="622" type="curve" smooth="yes"/>
      <point x="1731" y="608"/>
      <point x="1722" y="595"/>
      <point x="1703" y="582" type="curve" smooth="yes"/>
      <point x="1657" y="553"/>
      <point x="1601" y="536"/>
      <point x="1534" y="536" type="curve" smooth="yes"/>
      <point x="1504" y="536"/>
      <point x="1474" y="541"/>
    </contour>
    <contour>
      <point x="1096" y="-126" type="curve" smooth="yes"/>
      <point x="899" y="-126"/>
      <point x="736" y="-81"/>
      <point x="720" y="30" type="curve"/>
      <point x="793" y="23"/>
      <point x="900" y="17"/>
      <point x="1048" y="17" type="curve" smooth="yes"/>
      <point x="1199" y="17"/>
      <point x="1372" y="32"/>
      <point x="1479" y="48" type="curve" smooth="yes"/>
      <point x="1558" y="60"/>
      <point x="1621" y="81"/>
      <point x="1654" y="123" type="curve"/>
      <point x="1658" y="123" type="line"/>
      <point x="1706" y="84"/>
      <point x="1740" y="74"/>
      <point x="1770" y="74" type="curve" smooth="yes"/>
      <point x="1816" y="74"/>
      <point x="1867" y="126"/>
      <point x="1885" y="195" type="curve"/>
      <point x="1889" y="195" type="line"/>
      <point x="1910" y="131"/>
      <point x="1958" y="95"/>
      <point x="2037" y="95" type="curve" smooth="yes"/>
      <point x="2139" y="95"/>
      <point x="2232" y="129"/>
      <point x="2321" y="191" type="curve"/>
      <point x="2347" y="264" type="line"/>
      <point x="2342" y="268" type="line"/>
      <point x="2298" y="238"/>
      <point x="2257" y="216"/>
      <point x="2221" y="202" type="curve" smooth="yes"/>
      <point x="2202" y="195"/>
      <point x="2186" y="192"/>
      <point x="2173" y="192" type="curve" smooth="yes"/>
      <point x="2139" y="192"/>
      <point x="2109" y="205"/>
      <point x="2085" y="230" type="curve"/>
      <point x="2060" y="259"/>
      <point x="2044" y="287"/>
      <point x="2044" y="316" type="curve" smooth="yes"/>
      <point x="2044" y="346"/>
      <point x="2109" y="383"/>
      <point x="2174" y="383" type="curve" smooth="yes"/>
      <point x="2215" y="383"/>
      <point x="2248" y="371"/>
      <point x="2282" y="344" type="curve"/>
      <point x="2291" y="352" type="line"/>
      <point x="2246" y="422"/>
      <point x="2204" y="456"/>
      <point x="2147" y="456" type="curve" smooth="yes"/>
      <point x="2099" y="456"/>
      <point x="2060" y="430"/>
      <point x="2035" y="394" type="curve" smooth="yes"/>
      <point x="2011" y="358"/>
      <point x="1998" y="321"/>
      <point x="1998" y="289" type="curve" smooth="yes"/>
      <point x="1998" y="237"/>
      <point x="2014" y="199"/>
      <point x="2046" y="173" type="curve"/>
      <point x="2045" y="169" type="line"/>
      <point x="1942" y="191"/>
      <point x="1929" y="225"/>
      <point x="1929" y="384" type="curve" smooth="yes"/>
      <point x="1929" y="572"/>
      <point x="1931" y="760"/>
      <point x="1923" y="949" type="curve"/>
      <point x="1918" y="952" type="line"/>
      <point x="1906" y="935"/>
      <point x="1891" y="917"/>
      <point x="1881" y="900" type="curve"/>
      <point x="1879" y="725"/>
      <point x="1884" y="554"/>
      <point x="1884" y="384" type="curve" smooth="yes"/>
      <point x="1884" y="260"/>
      <point x="1879" y="221"/>
      <point x="1837" y="176" type="curve"/>
      <point x="1824" y="164"/>
      <point x="1810" y="154"/>
      <point x="1795" y="154" type="curve" smooth="yes"/>
      <point x="1767" y="154"/>
      <point x="1735" y="174"/>
      <point x="1706" y="211" type="curve" smooth="yes"/>
      <point x="1700" y="218"/>
      <point x="1694" y="218"/>
      <point x="1688" y="211" type="curve" smooth="yes"/>
      <point x="1653" y="173"/>
      <point x="1611" y="153"/>
      <point x="1554" y="141" type="curve"/>
      <point x="1407" y="117"/>
      <point x="1210" y="105"/>
      <point x="1065" y="105" type="curve" smooth="yes"/>
      <point x="962" y="105"/>
      <point x="785" y="112"/>
      <point x="716" y="120" type="curve"/>
      <point x="716" y="235"/>
      <point x="715" y="339"/>
      <point x="715" y="455" type="curve"/>
      <point x="714" y="504"/>
      <point x="712" y="564"/>
      <point x="709" y="612" type="curve"/>
      <point x="705" y="614" type="line"/>
      <point x="688" y="597"/>
      <point x="675" y="578"/>
      <point x="665" y="563" type="curve"/>
      <point x="668" y="422"/>
      <point x="671" y="278"/>
      <point x="673" y="123" type="curve"/>
      <point x="454" y="139"/>
      <point x="359" y="186"/>
      <point x="359" y="305" type="curve"/>
      <point x="357" y="425" type="line"/>
      <point x="373" y="438"/>
      <point x="385" y="450"/>
      <point x="393" y="463" type="curve" smooth="yes"/>
      <point x="423" y="515" type="line"/>
      <point x="418" y="519" type="line"/>
      <point x="357" y="484" type="line"/>
      <point x="355" y="566" type="line"/>
      <point x="349" y="568" type="line"/>
      <point x="334" y="552"/>
      <point x="322" y="537"/>
      <point x="313" y="521" type="curve"/>
      <point x="314" y="464" type="line"/>
      <point x="205" y="405"/>
      <point x="144" y="343"/>
      <point x="122" y="302" type="curve" smooth="yes"/>
      <point x="106" y="271"/>
      <point x="94" y="241"/>
      <point x="94" y="215" type="curve" smooth="yes"/>
      <point x="94" y="176"/>
      <point x="134" y="148"/>
      <point x="204" y="148" type="curve" smooth="yes"/>
      <point x="255" y="148"/>
      <point x="282" y="152"/>
      <point x="326" y="193" type="curve"/>
      <point x="329" y="193" type="line"/>
      <point x="349" y="93"/>
      <point x="467" y="46"/>
      <point x="670" y="33" type="curve"/>
      <point x="670" y="8"/>
      <point x="667" y="-12"/>
      <point x="655" y="-26" type="curve"/>
      <point x="627" y="-54"/>
      <point x="578" y="-79"/>
      <point x="510" y="-94" type="curve"/>
      <point x="477" y="-158" type="line" smooth="yes"/>
      <point x="461" y="-188"/>
      <point x="474" y="-272"/>
      <point x="389" y="-330" type="curve" smooth="yes"/>
      <point x="290" y="-398"/>
      <point x="206" y="-441"/>
      <point x="70" y="-490" type="curve"/>
      <point x="73" y="-499" type="line"/>
      <point x="210" y="-509" type="line"/>
      <point x="390" y="-433"/>
      <point x="468" y="-367"/>
      <point x="475" y="-285" type="curve"/>
      <point x="478" y="-284" type="line"/>
      <point x="504" y="-341"/>
      <point x="544" y="-369"/>
      <point x="592" y="-369" type="curve" smooth="yes"/>
      <point x="630" y="-369"/>
      <point x="670" y="-327"/>
      <point x="670" y="-254" type="curve" smooth="yes"/>
      <point x="670" y="-200"/>
      <point x="647" y="-156"/>
      <point x="599" y="-124" type="curve"/>
      <point x="633" y="-112"/>
      <point x="660" y="-83"/>
      <point x="678" y="-34" type="curve"/>
      <point x="681" y="-34" type="line"/>
      <point x="715" y="-192"/>
      <point x="882" y="-213"/>
      <point x="1048" y="-213" type="curve" smooth="yes"/>
      <point x="1351" y="-213"/>
      <point x="1598" y="-135"/>
      <point x="1630" y="-135" type="curve" smooth="yes"/>
      <point x="1639" y="-135"/>
      <point x="1645" y="-140"/>
      <point x="1645" y="-148" type="curve" smooth="yes"/>
      <point x="1645" y="-176"/>
      <point x="1620" y="-219"/>
      <point x="1583" y="-268" type="curve"/>
      <point x="1591" y="-292" type="line"/>
      <point x="1656" y="-219"/>
      <point x="1699" y="-147"/>
      <point x="1699" y="-79" type="curve" smooth="yes"/>
      <point x="1699" y="-58"/>
      <point x="1688" y="-50"/>
      <point x="1668" y="-50" type="curve" smooth="yes"/>
      <point x="1630" y="-50"/>
      <point x="1364" y="-126"/>
    </contour>
    <contour>
      <point x="1956" y="577" type="line"/>
      <point x="2008" y="606"/>
      <point x="2093" y="643"/>
      <point x="2218" y="694" type="curve"/>
      <point x="2244" y="741" type="line"/>
      <point x="2243" y="743" type="line"/>
      <point x="2121" y="695"/>
      <point x="2026" y="656"/>
      <point x="1966" y="626" type="curve"/>
      <point x="1954" y="579" type="line"/>
    </contour>
    <contour>
      <point x="505" y="-164" type="curve"/>
      <point x="581" y="-177"/>
      <point x="618" y="-220"/>
      <point x="635" y="-273" type="curve"/>
      <point x="625" y="-284"/>
      <point x="611" y="-288"/>
      <point x="596" y="-288" type="curve" smooth="yes"/>
      <point x="540" y="-288"/>
      <point x="499" y="-232"/>
      <point x="499" y="-196" type="curve" smooth="yes"/>
      <point x="499" y="-181"/>
      <point x="501" y="-171"/>
    </contour>
    <contour>
      <point x="320" y="247" type="line"/>
      <point x="291" y="236"/>
      <point x="260" y="232"/>
      <point x="232" y="232" type="curve"/>
      <point x="183" y="234"/>
      <point x="151" y="244"/>
      <point x="151" y="265" type="curve" smooth="yes"/>
      <point x="151" y="292"/>
      <point x="205" y="339"/>
      <point x="315" y="400" type="curve"/>
    </contour>
    <contour>
      <point x="414" y="314" type="line"/>
      <point x="466" y="343"/>
      <point x="540" y="372"/>
      <point x="620" y="405" type="curve"/>
      <point x="646" y="449" type="line"/>
      <point x="644" y="452" type="line"/>
      <point x="551" y="417"/>
      <point x="484" y="390"/>
      <point x="424" y="360" type="curve"/>
      <point x="412" y="316" type="line"/>
    </contour>
    <contour>
      <point x="1106" y="-390" type="line"/>
      <point x="1138" y="-413"/>
      <point x="1170" y="-439"/>
      <point x="1202" y="-468" type="curve"/>
      <point x="1221" y="-446"/>
      <point x="1238" y="-421"/>
      <point x="1251" y="-393" type="curve"/>
      <point x="1224" y="-362"/>
      <point x="1193" y="-335"/>
      <point x="1158" y="-310" type="curve"/>
    </contour>
    <contour>
      <point x="957" y="-405" type="line"/>
      <point x="989" y="-428"/>
      <point x="1022" y="-452"/>
      <point x="1054" y="-481" type="curve"/>
      <point x="1073" y="-459"/>
      <point x="1091" y="-431"/>
      <point x="1104" y="-403" type="curve"/>
      <point x="1074" y="-372"/>
      <point x="1044" y="-350"/>
      <point x="1009" y="-324" type="curve"/>
    </contour>
    <contour>
      <point x="1475" y="-498" type="line"/>
      <point x="1626" y="-509" type="line"/>
      <point x="1905" y="-391"/>
      <point x="1998" y="-302"/>
      <point x="1998" y="-168" type="curve" smooth="yes"/>
      <point x="1998" y="-79"/>
      <point x="1981" y="-28"/>
      <point x="1951" y="9" type="curve"/>
      <point x="1930" y="31"/>
      <point x="1911" y="39"/>
      <point x="1889" y="39" type="curve" smooth="yes"/>
      <point x="1860" y="39"/>
      <point x="1833" y="24"/>
      <point x="1811" y="-1" type="curve" smooth="yes"/>
      <point x="1781" y="-33"/>
      <point x="1768" y="-70"/>
      <point x="1768" y="-111" type="curve" smooth="yes"/>
      <point x="1768" y="-170"/>
      <point x="1807" y="-205"/>
      <point x="1878" y="-205" type="curve" smooth="yes"/>
      <point x="1932" y="-205"/>
      <point x="1950" y="-208"/>
      <point x="1950" y="-222" type="curve" smooth="yes"/>
      <point x="1950" y="-239"/>
      <point x="1902" y="-284"/>
      <point x="1805" y="-338" type="curve" smooth="yes"/>
      <point x="1712" y="-391"/>
      <point x="1632" y="-431"/>
      <point x="1475" y="-488" type="curve"/>
    </contour>
    <contour>
      <point x="1959" y="-140" type="line"/>
      <point x="1959" y="-108"/>
      <point x="1805" y="-131"/>
      <point x="1805" y="-85" type="curve" smooth="yes"/>
      <point x="1805" y="-59"/>
      <point x="1840" y="-30"/>
      <point x="1876" y="-30" type="curve" smooth="yes"/>
      <point x="1927" y="-30"/>
      <point x="1952" y="-82"/>
      <point x="1964" y="-139" type="curve"/>
    </contour>
  </outline>
</glyph>
<glyph name="maBraceleft" format="1">
  <advance width="536"/>
  <outline>
    <contour>
      <point x="466" y="-186" type="line"/>
      <point x="354" y="-176"/>
      <point x="335" y="-117"/>
      <point x="335" y="-44" type="curve" smooth="yes"/>
      <point x="335" y="35"/>
      <point x="354" y="146"/>
      <point x="354" y="223" type="curve" smooth="yes"/>
      <point x="354" y="303"/>
      <point x="319" y="373"/>
      <point x="220" y="392" type="curve"/>
      <point x="220" y="398" type="line"/>
      <point x="322" y="417"/>
      <point x="354" y="487"/>
      <point x="354" y="567" type="curve" smooth="yes"/>
      <point x="354" y="644"/>
      <point x="335" y="753"/>
      <point x="335" y="835" type="curve" smooth="yes"/>
      <point x="335" y="894"/>
      <point x="355" y="966"/>
      <point x="466" y="976" type="curve"/>
      <point x="466" y="1034" type="line"/>
      <point x="351" y="1034"/>
      <point x="216" y="1005"/>
      <point x="216" y="824" type="curve" smooth="yes"/>
      <point x="216" y="743"/>
      <point x="224" y="644"/>
      <point x="224" y="545" type="curve" smooth="yes"/>
      <point x="224" y="498"/>
      <point x="221" y="433"/>
      <point x="89" y="421" type="curve"/>
      <point x="89" y="369" type="line"/>
      <point x="220" y="360"/>
      <point x="224" y="288"/>
      <point x="224" y="245" type="curve" smooth="yes"/>
      <point x="224" y="147"/>
      <point x="216" y="50"/>
      <point x="216" y="-41" type="curve" smooth="yes"/>
      <point x="216" y="-218"/>
      <point x="354" y="-245"/>
      <point x="466" y="-245" type="curve"/>
    </contour>
  </outline>
</glyph>
<glyph name="wsPdf" format="1">
  <advance width="0"/>
  <outline>
    <contour>
      <point x="-25" y="1664" type="line"/>
      <point x="-25" y="1457" type="line"/>
      <point x="23" y="1457" type="line"/>
      <point x="23" y="1666" type="line"/>
      <point x="106" y="1582" type="line"/>
      <point x="141" y="1615" type="line"/>
      <point x="0" y="1756" type="line"/>
      <point x="-141" y="1615" type="line"/>
      <point x="-106" y="1582" type="line"/>
    </contour>
  </outline>
</glyph>
